<svg xmlns="http://www.w3.org/2000/svg" width="226" height="31" viewBox="0 0 226 31">
    <path fill="#002AAF" d="M0 22.735V.299h2.722v20.013h8.227v2.423H0zM19.025 7.478c1.815 0 3.3.484 4.457 1.451 1.157.968 1.735 2.378 1.735 4.233v9.573h-2.333l-.15-2.124c-1.814 1.615-3.659 2.423-5.533 2.423-1.337 0-2.433-.429-3.291-1.287-.858-.857-1.286-1.954-1.286-3.29 0-1.496.603-2.662 1.81-3.5 1.206-.838 3.026-1.057 5.459-.658l2.722.449v-1.765c0-1.077-.344-1.89-1.032-2.438-.688-.549-1.58-.823-2.677-.823-1.755 0-3.091.688-4.009 2.064l-1.825-1.615c1.237-1.795 3.221-2.693 5.953-2.693zm-3.71 10.86c0 .697.225 1.26.674 1.69.449.428 1.052.643 1.81.643 1.555 0 3.16-.758 4.816-2.274v-1.705l-2.453-.419c-1.735-.319-2.976-.264-3.724.165-.748.428-1.122 1.062-1.122 1.9zm32.996-10.56h2.393v14.777c0 2.234-.643 4.068-1.93 5.504-1.286 1.436-2.996 2.154-5.13 2.154-1.715 0-3.25-.469-4.606-1.406v-2.872c1.356 1.297 2.951 1.945 4.786 1.945 1.276 0 2.308-.484 3.096-1.451.788-.967 1.182-2.259 1.182-3.874v-1.884c-1.277 1.575-2.912 2.363-4.906 2.363-2.074 0-3.74-.743-4.996-2.229-1.256-1.486-1.884-3.335-1.884-5.549 0-2.233.628-4.088 1.884-5.564 1.257-1.476 2.922-2.214 4.996-2.214 2.034 0 3.7.828 4.995 2.483l.12-2.183zM43.615 20.67c1.037 0 1.969-.36 2.797-1.077.827-.718 1.39-1.636 1.69-2.752V13.67c-.3-1.137-.863-2.064-1.69-2.782-.828-.718-1.76-1.077-2.797-1.077-1.436 0-2.578.518-3.426 1.555-.847 1.037-1.27 2.334-1.27 3.89 0 1.535.423 2.821 1.27 3.858.848 1.037 1.99 1.556 3.426 1.556zM62.16 7.478c1.376 0 2.463.3 3.26.898l-1.285 1.914c-.579-.319-1.277-.478-2.094-.478-1.117 0-2.1.434-2.947 1.301-.848.868-1.271 1.95-1.271 3.246v8.376H55.19V7.778h2.423l.12 2.273c1.197-1.715 2.672-2.573 4.427-2.573zm10.23 0c1.816 0 3.301.484 4.458 1.451 1.157.968 1.735 2.378 1.735 4.233v9.573h-2.333l-.15-2.124c-1.815 1.615-3.66 2.423-5.534 2.423-1.336 0-2.433-.429-3.29-1.287-.858-.857-1.287-1.954-1.287-3.29 0-1.496.603-2.662 1.81-3.5 1.207-.838 3.026-1.057 5.46-.658l2.721.449v-1.765c0-1.077-.344-1.89-1.032-2.438-.688-.549-1.58-.823-2.677-.823-1.755 0-3.091.688-4.008 2.064l-1.825-1.615c1.236-1.795 3.22-2.693 5.953-2.693zm-3.709 10.86c0 .697.225 1.26.674 1.69.448.428 1.052.643 1.81.643 1.555 0 3.16-.758 4.815-2.274v-1.705l-2.452-.419c-1.735-.319-2.977-.264-3.725.165-.748.428-1.122 1.062-1.122 1.9zM90.34 7.477c1.675 0 3.066.549 4.173 1.646 1.107 1.097 1.66 2.483 1.66 4.158v9.453h-2.662V13.58c0-1.077-.369-1.974-1.107-2.692-.738-.718-1.665-1.077-2.782-1.077s-2.069.379-2.857 1.137c-.787.757-1.181 1.675-1.181 2.752v9.034H82.95V7.778h2.423l.12 1.974c1.256-1.516 2.872-2.274 4.846-2.274zM111.28.3h2.573v22.436h-2.364l-.12-2.154c-1.276 1.635-2.94 2.453-4.995 2.453-2.074 0-3.74-.743-4.996-2.229-1.256-1.486-1.884-3.335-1.884-5.549 0-2.214.628-4.063 1.884-5.549 1.257-1.486 2.922-2.229 4.996-2.229 2.014 0 3.65.778 4.906 2.334V.299zm-4.487 20.372c1.057 0 2-.354 2.827-1.062.827-.708 1.38-1.62 1.66-2.738v-3.23c-.28-1.117-.833-2.034-1.66-2.752-.828-.718-1.77-1.077-2.827-1.077-1.436 0-2.578.518-3.425 1.555-.848 1.037-1.272 2.334-1.272 3.89 0 1.555.424 2.846 1.272 3.873.847 1.027 1.989 1.54 3.425 1.54zm24.41-5.415c0 .379-.01.668-.03.868h-11.308c.14 1.416.609 2.537 1.406 3.365.798.828 1.875 1.241 3.23 1.241.918 0 1.686-.184 2.304-.553.619-.369 1.227-1.012 1.825-1.93l1.855 1.287c-1.297 2.333-3.32 3.5-6.073 3.5-2.174 0-3.904-.723-5.19-2.169-1.286-1.446-1.93-3.306-1.93-5.579 0-2.273.649-4.143 1.945-5.609 1.296-1.466 3.021-2.199 5.175-2.199 2.094 0 3.75.718 4.966 2.154 1.216 1.436 1.825 3.31 1.825 5.624zm-6.731-5.504c-1.276 0-2.303.389-3.081 1.167-.778.777-1.266 1.824-1.466 3.14h8.885c-.14-1.336-.584-2.388-1.332-3.155-.747-.768-1.75-1.152-3.006-1.152zm27.79 13.282c-3.21 0-5.838-1.107-7.882-3.32-2.044-2.214-3.066-4.946-3.066-8.197 0-3.25 1.022-5.983 3.066-8.197C146.424 1.107 149.05 0 152.262 0c3.19 0 5.813 1.112 7.867 3.335 2.055 2.224 3.082 4.951 3.082 8.182 0 3.23-1.027 5.958-3.082 8.181-2.054 2.224-4.676 3.336-7.867 3.336zm0-4.368c2.034 0 3.64-.673 4.816-2.019 1.177-1.346 1.765-3.056 1.765-5.13 0-2.094-.588-3.814-1.765-5.16-1.176-1.346-2.782-2.02-4.816-2.02-2.054 0-3.674.674-4.86 2.02-1.188 1.346-1.78 3.066-1.78 5.16 0 2.074.597 3.784 1.794 5.13s2.812 2.02 4.846 2.02zm24.11-10.888h4.338v14.957h-3.889l-.239-1.765c-1.216 1.376-2.722 2.064-4.517 2.064-1.655 0-3.056-.589-4.203-1.765-1.146-1.177-1.72-2.613-1.72-4.308V7.778h4.368v8.645c0 .778.269 1.436.807 1.974.539.539 1.207.808 2.005.808.837 0 1.555-.27 2.153-.808.599-.538.898-1.196.898-1.974V7.778zm16.364-.3c1.535 0 2.742.43 3.62 1.287l-1.825 3.2c-.639-.458-1.416-.687-2.334-.687-.937 0-1.76.364-2.468 1.091-.708.728-1.062 1.69-1.062 2.887v7.479H184.3V7.778h3.919l.239 2.303c1.117-1.735 2.543-2.603 4.278-2.603zm10.918 15.556c-3.15 0-5.534-.618-7.15-1.855l1.915-3.081c.479.399 1.157.753 2.034 1.062.878.309 1.686.484 2.424.523.717.04 1.306-.04 1.764-.239.46-.2.688-.508.688-.927 0-.459-.249-.818-.747-1.077-.499-.26-1.287-.539-2.364-.838-.598-.18-1.077-.324-1.435-.434-.36-.11-.798-.294-1.317-.553-.518-.26-.922-.523-1.211-.793-.29-.269-.544-.623-.763-1.062-.22-.438-.33-.927-.33-1.465 0-1.436.574-2.598 1.721-3.485 1.147-.888 2.657-1.332 4.532-1.332 2.433 0 4.477.539 6.132 1.616l-2.034 2.812c-.937-.698-2.084-1.117-3.44-1.257-.678-.08-1.271-.03-1.78.15-.508.18-.763.479-.763.897 0 .12.015.225.045.314.03.09.09.18.18.27.09.09.174.17.254.239.08.07.194.145.344.224.15.08.284.145.404.195.12.05.279.11.478.18.2.07.37.124.509.164.14.04.33.1.568.18.24.08.43.139.569.179.678.22 1.251.429 1.72.628.468.2.957.474 1.466.823.508.349.897.787 1.166 1.316.27.528.404 1.142.404 1.84 0 1.475-.538 2.642-1.615 3.5-1.077.857-2.533 1.286-4.368 1.286zM226 15.226c0 .419-.03.848-.09 1.287h-10.14c.259 2.113 1.356 3.17 3.29 3.17.738 0 1.371-.154 1.9-.463.528-.31 1.051-.843 1.57-1.6l3.081 1.525c-.558 1.216-1.406 2.169-2.543 2.857-1.136.688-2.443 1.032-3.918 1.032-2.513 0-4.428-.713-5.744-2.14-1.316-1.425-1.974-3.305-1.974-5.638 0-2.273.678-4.143 2.034-5.609 1.356-1.466 3.2-2.198 5.534-2.198 2.154 0 3.859.703 5.115 2.109 1.257 1.405 1.885 3.295 1.885 5.668zm-7.06-4.367c-1.655 0-2.682.907-3.08 2.722h6.012c-.32-1.815-1.296-2.722-2.932-2.722z"/>
</svg>
