<svg xmlns="http://www.w3.org/2000/svg" xmlns:xlink="http://www.w3.org/1999/xlink" width="100%" height="100%" viewBox="0 0 151 112">
    <defs>
        <path id="7dab7euxga" d="M0 0.204L11.057 0.204 11.057 18 0 18z"/>
        <path id="gkw2i2iy9c" d="M0.708 0.204L11.765 0.204 11.765 18 0.708 18z"/>
    </defs>
    <g fill="none" fill-rule="evenodd">
        <path fill="#9ACCFF" d="M146.643 63.829C142.611 35.846 28.027-10.694 9.323 17.385c-18.705 28.08 4.564 76.695 48.561 86.484 43.997 9.79 92.79-12.058 88.759-40.04z" opacity=".5" transform="translate(.221)"/>
        <g>
            <path fill="#FEFEFE" d="M51.823 25.864h.03c-.017-.009-.03-.012-.03 0M52.663 24.119l.009.024c.032.002.063.005.095.005l-.104-.03zM53.342 57.286c-.029.006-.052.02-.074.033.017-.002.04-.009.074-.033M53.101 59.673l.023-.059c-.015.023-.02.042-.023.06M53.103 56.047c.014-.032.037-.043.014-.086-.008.003-.015.007-.02.013.023.015.033.037.006.073M53.102 54.757c-.013.007-.022.016-.034.023l.01.041.024-.064zM51.905 29.784c.047-.028.1-.046.15-.06-.12.02-.162-.169-.15.06M51.766 55.994l.025-.205c-.016.058-.025.132-.025.205M51.766 55.181c.06-.037.095-.076.117-.116-.013-.008-.024-.018-.043-.023l-.074.14zM52.058 29.724h-.002.002" transform="translate(.221) translate(37.779 3)"/>
            <path fill="#FEFEFE" d="M53.011 28.95c-.028.041-.04.062-.078.07.201-.681-.189-1.404.13-2.078.064-.192-.077-.212-.186-.329l.183-.041-.21-.2c-.154-.282.446-.49.155-.849l-.122.047c.023-.128-.072-.407.068-.387-.022-.012-.127-.041-.063-.091l.095-.005-.163-.316c.07-.245.378.038.397-.32-.037-.131-.277-.378-.342-.328-.005.054-.058.137-.154.142l-.05-.123c-.28-.021-.568-.114-.764.184l.171.207-.136.067-.008-.175c-.128.1-.015.163.062.233-.072.017-.123.046-.149.087l.268.204c-.11.025-.218-.09-.279.046.124.096.246-.091.328.066-.128.1-.23.072-.123.189-.072.015-.118-.01-.149-.055.087.104.036.274.185.328-.157.104.041.352-.224.341.063.032.21.183.22.278-.319-.174-.019.358-.36.311.285.13.127.468.285.695-.022-.012-.069-.038-.053-.058-.025.13-.11.166-.164.25.235.015.29.216.435.325-.227.158-.277-.096-.496-.047.191-.008.19.274.351.22-.142.121-.069.104-.265.166.296.021.05.112.231.213-.145.175-.276.046-.186.236-.09.091-.195-.078-.195-.078-.005.195.217.091.345.133.064.233-.164.108-.277.187.058.145.263.256.255.366-.037.008-.05.029-.097.003.177.154.01.457.232.637-.02.014-.04.02-.056.023.111-.029.225-.034.306-.027.003.088.14.163-.005.195.005-.053-.054-.058-.1-.084l.064.093c-.21.082-.074-.125-.228-.125.068.178.241.387.183.523-.205.03-.07-.32-.252-.136l.08-.213c-.324.163.021-.128-.324.02m1.452 30.133c.107.035.203-.062.18-.105-.003.108-.178.052-.26-.048.083-.172-.063-.188-.053-.277l-.039.102c-.107-.033-.093-.12-.126-.24.083-.01.056.11.094.067-.189-.133.194-.301.067-.486.073-.087.201-.01.251-.084-.139-.208.146-.225.032-.444-.144.063-.109.073-.249-.08l.101.358-.209-.23c-.002.108.091.23.066.294-.118-.11-.082-.099-.2-.047.215-.148-.127-.294.018-.465l.357.005c.16-.258-.183-.458-.093-.793l-.062.108c-.14-.044-.02-.206-.077-.316.12.01.163-.056.236-.102-.088.005.01-.245-.23-.276l.158-.15c.064-.27-.339-.308-.299-.569.13.08.214-.04.306.134.001-.086.023-.164-.059-.166.074-.05-.16-.24-.048-.32-.052-.036-.177-.047-.167-.145.024-.012.06 0 .06 0-.06 0-.082-.153-.212-.068.371-.267-.028-.746.291-.98-.039-.188-.078-.416-.087-.589.036.011.06 0 .048.033.11-.236-.342-.145-.219-.415.192-.137.104.143.177.058.391-.038-.053-.326.175-.508l.023.044c.134-.14-.149-.338-.12-.566 0 0 .035.011.06.002-.2-.155-.267-.45-.322-.666.152.067.081.099.236.056-.022-.097-.25.03-.294-.166.084-.064.158-.205.325-.223l.008.184c.215-.095-.007-.239.031-.336l.093.014c-.03-.282-.267-.286-.25-.59l-.07.032c-.236-.166.131-.14-.044-.304l.238-.052c-.057-.108-.23-.381-.275-.578.177.111.267.34.372.483.001-.108-.017-.368-.135-.425.023.044.081.099.044.142-.186-.133-.279-.308-.275-.524.462.037.117-.564.475-.72-.17-.383.073-.758.045-1.203l-1.312.274-.295.7.107-.02c.106.088-.06.106-.086.172.083-.01.097-.096.155-.04.13.748-.156 1.547-.253 2.316-.029.28.555.158.3.514l-.2-.101c.24.568-.008 1.16.194 1.715-.046-.034-.106-.035-.105-.089-.145.117-.008.434.111.436-.014.087-.107.02-.167.073-.085.119.185.297.041.359-.024.01-.047-.033-.058-.054.07.075-.018.356.148.282-.079.21.075.4-.024.566.187.108-.09.356.175.392-.274-.015-.22.364-.092.497-.083-.044-.086.114-.2.063.004.15.055.288.194.261-.326.277.263.557-.155.713.146.448.246.86.31 1.263-.272-.015-.027-.445-.313-.428.112.382.346.602.28.98-.037.097-.118-.056-.165-.089.113.38-.024.736.124 1.075-.025 0-.053-.036-.074-.072.01.068-.04.156.084.149l-.033-.066c.18-.107.374.265.47.277" transform="translate(.221) translate(37.779 3)"/>
            <path fill="#FEFEFE" d="M51.967 59.721c0-.008-.003-.018-.008-.026-.032-.063-.019-.02.008.026M51.763 56.017h.003v-.022l-.003.022zM53.252 54.987l-.19.029c.035.067.248.08.19-.03M53.06 51.146c.094-.042.154-.15.061-.216-.012.086-.086.172-.062.216M36.146 25.864h.029c-.016-.009-.028-.012-.029 0M36.985 24.119l.009.024c.032.002.064.005.095.005l-.104-.03zM37.666 57.286c-.03.006-.053.02-.074.033.017-.002.038-.009.074-.033M37.424 59.673l.022-.059c-.015.023-.02.042-.022.06M37.426 56.047c.013-.032.036-.043.014-.086-.009.003-.015.007-.02.013.023.015.032.037.006.073M37.425 54.757c-.013.007-.022.016-.034.023l.01.041.024-.064zM36.227 29.784c.048-.028.101-.046.152-.06-.12.02-.163-.169-.152.06M36.09 55.994l.023-.205c-.015.058-.024.132-.024.205M36.09 55.181c.06-.037.093-.076.116-.116-.013-.008-.024-.018-.044-.023l-.073.14zM36.381 29.724h-.002.002" transform="translate(.221) translate(37.779 3)"/>
            <path fill="#FEFEFE" d="M36.184 19.434c.028-.041.041-.062.078-.07-.2.68.19 1.405-.13 2.078-.064.19.077.212.186.328l-.182.042.21.2c.153.282-.447.489-.156.848l.122-.046c-.023.128.073.407-.068.386.022.013.127.042.063.092l-.095.004.163.316c-.069.245-.378-.038-.396.32.036.132.277.378.341.328.005-.054.06-.137.155-.141l.05.122c.28.022.567.115.763-.183l-.17-.208.135-.067.008.175c.13-.1.016-.162-.062-.233.072-.017.123-.046.15-.087l-.269-.204c.11-.025.218.09.28-.045-.125-.096-.247.09-.329-.067.128-.1.231-.071.123-.187.072-.017.118.008.15.054-.087-.104-.037-.275-.186-.33.157-.102-.04-.35.224-.34-.063-.032-.208-.182-.22-.278.32.174.02-.357.361-.311-.286-.13-.127-.466-.286-.695.022.013.07.038.054.058.024-.13.11-.166.164-.25-.236-.015-.29-.215-.436-.324.227-.158.277.096.496.047-.19.007-.19-.274-.35-.221.141-.12.07-.104.264-.166-.296-.021-.05-.112-.23-.213.144-.174.275-.044.185-.236.091-.091.195.079.195.079.005-.195-.217-.092-.345-.133-.064-.233.164-.108.277-.187-.058-.146-.263-.257-.254-.366.036-.008.05-.03.096-.004-.177-.154-.009-.457-.232-.636.02-.014.04-.02.056-.024-.11.029-.224.034-.306.028-.003-.087-.14-.163.005-.195-.004.053.055.058.1.083l-.064-.092c.21-.083.074.125.228.125-.067-.18-.24-.387-.182-.524.204-.03.07.32.251.138l-.078.212c.322-.163-.023.128.322-.021m-.079 10.537c-.028.04-.04.062-.078.07.201-.682-.189-1.405.13-2.078.065-.191-.078-.212-.185-.33l.181-.04-.21-.2c-.153-.283.448-.49.157-.848l-.124.046c.024-.13-.072-.407.07-.386-.023-.013-.128-.042-.065-.093l.096-.004-.163-.316c.068-.245.378.039.396-.32-.037-.132-.277-.377-.34-.328-.005.054-.06.138-.156.142l-.049-.122c-.28-.022-.568-.115-.764.183l.172.208-.137.067-.009-.175c-.128.099-.014.162.064.233-.073.016-.123.046-.15.087l.268.204c-.11.025-.218-.092-.279.046.125.095.247-.092.33.066-.129.1-.234.07-.124.187-.073.017-.119-.008-.15-.054.086.104.036.275.186.328-.158.104.041.35-.226.34.064.033.21.184.22.279-.317-.174-.019.358-.359.312.286.129.127.466.286.695-.024-.013-.07-.038-.055-.058-.023.128-.11.166-.164.248.236.017.29.218.436.325-.228.158-.277-.095-.497-.046.192-.008.192.274.351.22-.14.12-.068.104-.264.167.295.02.05.112.232.212-.146.175-.278.045-.187.237-.09.09-.195-.08-.195-.08-.005.196.218.092.346.134.062.233-.164.108-.279.187.06.145.264.257.255.365-.037.009-.05.03-.096.005.177.154.01.457.231.636-.02.013-.038.02-.055.024.112-.03.225-.034.306-.028.004.088.141.162-.005.195.004-.053-.055-.058-.1-.083l.063.092c-.209.082-.072-.126-.228-.126.07.18.243.388.183.525-.205.029-.068-.321-.25-.137l.077-.213c-.323.162.023-.13-.323.02m1.453 30.133c.106.035.203-.062.18-.106-.002.109-.179.052-.26-.047.083-.172-.063-.187-.053-.277l-.039.103c-.107-.035-.093-.121-.127-.24.084-.011.058.108.094.065-.188-.132.195-.3.068-.485.074-.086.201-.01.25-.084-.138-.208.147-.225.033-.444-.144.063-.109.074-.249-.08l.101.359-.209-.23c-.002.108.09.229.066.294-.118-.11-.082-.1-.202-.047.216-.15-.125-.294.021-.466l.356.005c.16-.258-.183-.458-.093-.792l-.062.107c-.142-.045-.019-.207-.077-.315.12.01.162-.058.236-.104-.089.006.008-.245-.229-.275l.156-.15c.064-.27-.339-.31-.299-.568.13.078.214-.04.307.134.001-.087.023-.165-.06-.166.075-.051-.16-.241-.047-.32-.052-.037-.176-.05-.167-.146.024-.011.06 0 .06 0-.06 0-.08-.152-.213-.067.371-.268-.027-.747.292-.98-.04-.19-.078-.418-.087-.59.035.012.06 0 .047.034.111-.238-.342-.146-.218-.416.193-.138.104.143.177.057.392-.037-.054-.326.175-.507l.023.044c.133-.14-.148-.34-.12-.565 0 0 .034.01.06 0-.2-.154-.267-.448-.323-.666.154.068.081.099.238.058-.023-.098-.25.028-.294-.167.084-.063.157-.204.323-.223l.01.184c.215-.094-.008-.238.03-.335l.093.013c-.03-.283-.267-.287-.25-.59l-.07.03c-.236-.164.13-.138-.044-.303l.238-.05c-.057-.11-.23-.383-.275-.58.177.112.267.342.372.484.001-.11-.018-.37-.135-.426.023.044.081.1.045.143-.188-.133-.28-.31-.276-.524.462.038.116-.563.475-.72-.17-.382.073-.758.046-1.203l-1.313.275-.295.699.108-.02c.104.088-.062.107-.086.172.083-.01.096-.096.154-.041.13.75-.156 1.548-.254 2.316-.028.28.556.16.3.514l-.199-.1c.238.567-.009 1.16.194 1.715-.046-.033-.106-.034-.105-.088-.145.117-.007.434.111.436-.014.086-.107.02-.167.073-.085.118.185.295.041.358-.023.01-.047-.033-.059-.055.071.077-.017.358.15.284-.08.208.074.399-.025.565.187.108-.089.357.174.39-.272-.014-.219.367-.092.499-.082-.044-.084.114-.199.062.004.15.054.289.195.262-.327.278.262.557-.156.714.147.446.246.859.31 1.262-.273-.015-.027-.445-.313-.427.112.38.345.6.28.979-.037.098-.117-.056-.164-.09.112.382-.025.738.123 1.077-.026-.001-.053-.038-.074-.072.01.066-.04.155.084.148l-.034-.066c.18-.106.375.266.47.277" transform="translate(.221) translate(37.779 3)"/>
            <path fill="#FEFEFE" d="M36.29 59.721c0-.008-.002-.018-.007-.026-.033-.063-.02-.02.008.026M36.087 56.017h.002v-.022l-.002.022zM37.575 54.987l-.19.029c.035.067.248.08.19-.03M37.381 51.146c.096-.042.156-.15.062-.216-.012.086-.086.172-.062.216M20.468 25.864h.03c-.017-.009-.029-.012-.03 0M21.308 24.119l.01.024c.031.002.062.005.094.005l-.104-.03zM21.988 57.286c-.03.006-.052.02-.074.033.017-.002.039-.009.074-.033M21.748 59.673l.022-.059c-.015.023-.02.042-.022.06M21.75 56.047c.012-.032.035-.043.014-.086-.01.003-.017.007-.023.013.024.015.035.037.009.073M21.748 54.757c-.013.007-.022.016-.034.023l.01.041.024-.064zM20.55 29.784c.048-.028.1-.046.152-.06-.12.02-.164-.169-.152.06M20.412 55.994l.025-.205c-.016.058-.025.132-.025.205M20.412 55.181c.06-.037.095-.076.117-.116-.013-.008-.023-.018-.043-.023l-.074.14zM20.704 29.724h-.001" transform="translate(.221) translate(37.779 3)"/>
            <path fill="#FEFEFE" d="M21.657 28.95c-.027.041-.041.062-.078.07.2-.681-.19-1.404.13-2.078.064-.192-.077-.212-.186-.329l.183-.041-.21-.2c-.154-.282.446-.49.155-.849l-.122.047c.024-.128-.072-.407.068-.387-.022-.012-.127-.041-.063-.091l.096-.005-.164-.316c.069-.245.378.038.397-.32-.037-.131-.277-.378-.342-.328-.005.054-.058.137-.154.142l-.05-.123c-.281-.021-.568-.114-.764.184l.17.207-.134.067-.01-.175c-.127.1-.014.163.063.233-.072.017-.123.046-.15.087l.269.204c-.11.025-.218-.09-.28.046.126.096.247-.091.329.066-.128.1-.231.072-.123.189-.071.015-.118-.01-.15-.055.088.104.037.274.186.328-.157.104.04.352-.224.341.063.032.209.183.22.278-.32-.174-.02.358-.361.311.286.13.128.468.286.695-.022-.012-.068-.038-.053-.058-.025.13-.111.166-.164.25.236.015.29.216.435.325-.227.158-.277-.096-.496-.047.19-.008.19.274.35.22-.14.121-.068.104-.264.166.296.021.05.112.23.213-.144.175-.275.046-.185.236-.091.091-.195-.078-.195-.078-.005.195.217.091.345.133.064.233-.163.108-.277.187.058.145.263.256.255.366-.037.008-.051.029-.097.003.178.154.009.457.232.637-.02.014-.04.02-.056.023.112-.029.225-.034.306-.027.003.088.14.163-.005.195.005-.053-.054-.058-.1-.084l.064.093c-.21.082-.073-.125-.228-.125.068.178.24.387.183.523-.205.03-.07-.32-.251-.136l.078-.213c-.323.163.022-.128-.323.02m1.453 30.133c.106.035.202-.062.179-.105-.002.108-.178.052-.26-.048.084-.172-.062-.188-.052-.277l-.04.102c-.107-.033-.093-.12-.126-.24.083-.01.057.11.094.067-.19-.133.195-.301.068-.486.072-.087.2-.01.25-.084-.14-.208.146-.225.032-.444-.144.063-.11.073-.25-.08l.102.358-.21-.23c-.001.108.092.23.067.294-.117-.11-.082-.099-.201-.047.216-.148-.126-.294.019-.465l.357.005c.159-.258-.183-.458-.093-.793l-.062.108c-.141-.044-.02-.206-.077-.316.119.01.163-.056.236-.102-.088.005.009-.245-.23-.276l.158-.15c.064-.27-.34-.308-.3-.569.13.08.215-.04.307.134 0-.086.023-.164-.06-.166.075-.05-.16-.24-.047-.32-.052-.036-.177-.047-.167-.145.024-.012.059 0 .059 0-.06 0-.081-.153-.211-.068.37-.267-.028-.746.29-.98-.038-.188-.077-.416-.085-.589.035.011.058 0 .047.033.11-.236-.342-.145-.22-.415.193-.137.105.143.179.058.39-.038-.054-.326.174-.508l.023.044c.134-.14-.148-.338-.12-.566 0 0 .035.011.059.002-.2-.155-.265-.45-.321-.666.153.067.08.099.236.056-.021-.097-.25.03-.293-.166.084-.064.158-.205.324-.223l.008.184c.215-.095-.007-.239.03-.336l.094.014c-.03-.282-.267-.286-.251-.59l-.07.032c-.235-.166.132-.14-.043-.304l.238-.052c-.057-.108-.23-.381-.275-.578.177.111.267.34.372.483.002-.108-.017-.368-.135-.425.023.044.08.099.044.142-.186-.133-.28-.308-.274-.524.46.037.116-.564.474-.72-.17-.383.073-.758.045-1.203l-1.312.274-.295.7.107-.02c.106.088-.061.106-.086.172.084-.01.097-.096.156-.04.129.748-.157 1.547-.254 2.316-.03.28.555.158.299.514l-.2-.101c.24.568-.007 1.16.195 1.715-.046-.034-.106-.035-.105-.089-.144.117-.007.434.11.436-.012.087-.106.02-.165.073-.086.119.184.297.04.359-.024.01-.047-.033-.058-.054.07.075-.018.356.149.282-.08.21.075.4-.025.566.187.108-.09.356.175.392-.274-.015-.22.364-.092.497-.083-.044-.086.114-.2.063.004.15.055.288.195.261-.326.277.263.557-.156.713.147.448.246.86.31 1.263-.272-.015-.027-.445-.313-.428.112.382.346.602.28.98-.037.097-.118-.056-.164-.089.112.38-.025.736.123 1.075-.025 0-.052-.036-.074-.072.01.068-.04.156.084.149l-.033-.066c.179-.107.375.265.47.277" transform="translate(.221) translate(37.779 3)"/>
            <path fill="#FEFEFE" d="M20.613 59.721c-.001-.008-.003-.018-.008-.026-.032-.063-.02-.02.008.026M20.409 56.017h.003v-.022l-.003.022zM21.898 54.987l-.19.029c.034.067.248.08.19-.03M21.705 51.146c.095-.042.156-.15.062-.216-.012.086-.086.172-.062.216M67.5 53.911h.03c-.017-.004-.03-.005-.03 0M68.34 53.065l.008.012.095.002-.104-.014zM67.582 55.814c.048-.014.1-.022.152-.029-.12.01-.163-.082-.152.03M67.606 60.306l-.021-.022c-.003.008.001.016.021.022M67.736 55.785h-.002.002z" transform="translate(.221) translate(37.779 3)"/>
            <path fill="#FEFEFE" d="M67.846 57.53c.007-.023.008-.05.007-.081.059-.006.119 0 .115.02-.038-.01-.072.033-.122.062m1.204 2.532c-.08-.047-.078-.105-.158-.153l.171.003c.043-.131.064-.197.024-.36l.122.034c.011-.093-.493-.117-.502-.2l.254-.026c-.003-.16.22-.322-.01-.48.037.002.11.007.121.032.007-.074.172-.29-.178-.263.229-.002.023-.166-.078-.252l.168.013c-.215-.072-.274-.075-.332-.177.021-.023.134-.02.091.011.088-.08-.159-.063-.07-.16l.108.036c.012-.083-.045-.076-.17-.122-.068-.052.042-.157.194-.169-.093-.01-.217-.055-.173-.105.058-.007.094.011.111.02.114-.137-.196-.206-.031-.3.056-.002.084-.008.101-.017-.004.11-.014.199-.025.19.154 0 .181-.089.395-.018-.116-.07-.37-.193-.297-.28.015-.004.03-.008.053-.01l.018.008c.015-.02.001-.037-.025-.054.025-.029.044-.046.046-.073.128-.01.069-.1.075-.146-.169.005-.141-.053-.281 0 .012-.007.02.008.026.038.005.008.008.014.018.02l-.015-.004c.005.03.009.068.012.11-.087-.035-.159-.072-.064-.12-.11-.023-.222-.047-.274-.061.236-.061.364-.178.51-.194-.096-.136-.063-.32-.382-.405-.04-.038.092-.043.142-.058.032.023.027.05.073.06-.082-.075-.032-.226-.255-.245.101-.096.205.054.169-.078l.068.018c.356-.262-.568-.426-.111-.716-.028.02-.041.03-.079.034.202-.332-.189-.683.131-1.01.064-.091-.078-.102-.186-.158l.182-.02-.21-.098c-.154-.138.446-.238.156-.412l-.123.023c.024-.063-.072-.197.068-.188-.022-.007-.127-.02-.063-.045l.096-.002-.163-.152c.068-.12.377.018.396-.155-.037-.066-.277-.184-.341-.16-.005.026-.059.066-.155.069l-.05-.06c-.28-.01-.568-.056-.764.09l.171.1-.135.032-.009-.084c-.128.047-.015.078.063.113-.073.008-.123.022-.15.041l.268.1c-.11.011-.218-.045-.279.022.125.046.247-.044.328.032-.127.049-.231.035-.122.092-.072.008-.118-.005-.15-.027.087.05.037.132.186.16-.158.05.04.17-.225.164.063.017.209.09.22.136-.318-.084-.019.174-.36.152.286.062.127.226.285.337-.022-.007-.068-.02-.053-.029-.024.063-.111.08-.164.12.236.008.29.106.436.158-.228.078-.277-.045-.497-.022.191-.003.191.133.351.107-.141.059-.069.05-.264.08.295.01.05.055.231.103-.145.086-.277.023-.187.116-.09.044-.194-.038-.194-.038-.006.093.217.044.345.063.063.113-.164.053-.278.091.058.072.264.126.255.179-.037.004-.05.014-.096.002.177.073.008.22.231.309-.02.006-.039.008-.055.01.111-.013.224-.015.306-.013.002.043.14.078-.005.095.004-.026-.055-.028-.101-.04l.064.044c-.209.04-.073-.06-.228-.06.068.086.242.188.183.254-.205.014-.07-.157-.251-.067l.078-.103c-.323.078.022-.063-.323.01-.06.136.104.151.044.286.114.03.168-.01.283.02.204.193-.515.153-.243.294.137.035.396.05.258.15l-.23-.035c-.024.133.332.077.177.214-.091-.026-.078-.104-.105-.084-.183.09.131.063.131.132l-.204.014c.031.14.18.292.217.447-.061-.008-.125-.035-.188.001.103.195-.025.417-.146.605l.176.073c-.002.016-.08.03-.114.011-.067.075.112.005.182.04.012.042-.102.056-.155.029.15.13.324.369.134.505l-.052-.027c-.073.107.362.12.197.218l-.031-.019c-.077.23.085.485-.182.661.255.034-.113.229.242.242-.177.133-.24.096-.358.28-.017.05.221.073.258.134l-.185.003.195.083-.222.043.047.058c.011-.023.083-.049.137-.044" transform="translate(.221) translate(37.779 3)"/>
            <path fill="#FEFEFE" d="M68.798 57.083c-.003-.004-.01-.006-.012-.012-.014.006-.028.012-.038.018l.053.01c0-.005 0-.01-.003-.016M67.522 60.099L67.565 60.099 67.527 60.082zM4.792 53.906h.03c-.018-.005-.03-.005-.03 0M5.63 53.065l.01.012.094.002-.104-.014zM4.873 55.795c.048-.014.1-.022.152-.03-.12.01-.163-.08-.152.03M4.897 60.255l-.021-.023c-.003.009.001.017.021.023M5.027 55.766h-.002.002z" transform="translate(.221) translate(37.779 3)"/>
            <path fill="#FEFEFE" d="M5.138 57.498c.006-.022.007-.05.006-.08.059-.007.119.001.116.02-.039-.01-.073.032-.122.06m1.203 2.516c-.079-.048-.078-.106-.158-.153l.171.003c.044-.13.065-.196.024-.357l.122.033c.011-.09-.492-.115-.501-.2l.254-.025c-.004-.159.22-.319-.011-.476.037.002.111.007.121.033.007-.075.173-.289-.177-.263.228 0 .022-.163-.078-.249l.168.013c-.215-.072-.274-.075-.333-.176.021-.024.135-.02.092.011.088-.08-.16-.062-.071-.159l.108.036c.012-.082-.045-.076-.17-.12-.068-.052.043-.156.194-.169-.092-.01-.216-.056-.172-.104.057-.007.093.011.111.02.114-.138-.197-.205-.031-.299.056-.002.083-.008.1-.016-.004.11-.013.197-.025.19.155 0 .181-.089.396-.019-.117-.07-.371-.192-.298-.278.015-.004.03-.008.054-.01l.018.008c.014-.02 0-.038-.026-.055.026-.027.044-.044.047-.07.128-.01.068-.102.075-.146-.17.004-.142-.054-.282 0 .012-.007.02.008.027.038.005.006.007.014.018.018l-.016-.003c.005.03.009.067.012.11-.086-.035-.158-.072-.064-.12-.109-.022-.221-.047-.274-.06.236-.06.364-.178.51-.194-.095-.134-.063-.316-.381-.4-.041-.038.091-.044.141-.058.032.022.027.048.073.06-.082-.076-.031-.226-.254-.244.101-.097.205.053.168-.078l.068.017c.356-.26-.567-.422-.111-.71-.028.02-.041.03-.078.033.201-.328-.19-.677.13-1 .064-.093-.077-.103-.186-.159l.182-.02-.21-.097c-.153-.136.447-.236.156-.409l-.123.023c.024-.062-.072-.197.069-.186-.022-.007-.128-.02-.063-.045l.095-.002-.163-.152c.068-.118.377.02.396-.154-.036-.064-.277-.182-.341-.159-.005.026-.059.067-.155.07l-.049-.06c-.281-.01-.568-.055-.765.088l.172.1-.136.032-.009-.084c-.128.048-.015.08.063.112-.072.01-.123.023-.15.042l.268.1c-.11.011-.217-.045-.278.021.124.046.246-.045.328.032-.128.048-.231.034-.123.09-.072.008-.118-.004-.15-.026.087.05.037.132.186.158-.157.05.041.17-.224.164.063.016.208.09.219.135-.318-.084-.019.172-.36.15.286.062.127.224.286.334-.022-.006-.069-.018-.054-.027-.024.062-.11.08-.164.12.236.007.291.104.436.156-.228.076-.277-.046-.496-.022.191-.004.19.132.351.106-.142.058-.07.05-.265.08.296.01.05.054.231.102-.145.085-.277.022-.186.114-.091.044-.195-.038-.195-.038-.005.094.217.044.345.064.064.113-.164.053-.278.091.059.07.264.124.255.176-.036.004-.05.014-.096.002.177.074.009.22.232.306-.021.007-.04.01-.056.012.111-.014.224-.016.306-.013.003.042.14.078-.005.094.004-.026-.055-.029-.1-.04l.063.044c-.209.04-.073-.06-.227-.06.067.086.241.186.182.252-.205.014-.069-.154-.251-.066l.078-.102c-.323.078.022-.062-.323.01-.059.134.104.15.044.284.115.03.169-.01.283.02.204.19-.515.15-.243.291.137.036.396.05.259.15l-.231-.034c-.024.13.332.074.177.21-.091-.024-.077-.102-.105-.082-.183.088.132.062.132.13l-.205.014c.032.14.18.291.218.445-.062-.009-.125-.035-.189.001.103.194-.024.414-.146.6l.176.071c-.001.017-.079.031-.114.014-.066.072.113.003.183.038.011.042-.103.055-.156.028.151.13.324.367.134.502l-.052-.026c-.072.105.363.12.198.216l-.032-.019c-.077.23.085.482-.182.657.255.033-.113.226.242.241-.176.13-.239.093-.358.277-.017.05.222.073.259.134l-.186.001.195.083-.222.043.047.058c.011-.023.084-.049.137-.045.085.09-.129.217-.224.22" transform="translate(.221) translate(37.779 3)"/>
            <path fill="#FEFEFE" d="M6.09 57.055c-.004-.004-.012-.007-.013-.012l-.038.017.053.011c0-.006 0-.011-.002-.016M4.813 60.049L4.856 60.049 4.819 60.033zM6.337 60.539L6.399 60.577 6.348 60.506zM52.462 25.123c.017-.052.008-.17-.038-.146l-.032.199.07-.053zM52.157 24.753c-.054.097-.115.267-.081.45.054-.192.066-.112.123-.34.046-.023.079.064.072.138.016-.052.07.044.095-.082-.06-.154-.134-.16-.212-.033-.018-.044-.001-.096.003-.133M47.71 24.442l.029.023c-.008-.013-.017-.02-.028-.023M44.956 24.332c.02-.004.029-.024.03-.042-.02.013-.035.025-.03.042M44.485 24.113l.027.014c-.01-.02-.02-.03-.027-.014M47.71 24.442l-.074-.063c-.005.065.038.048.075.063M51.544 25.235c.016-.01.028-.028.04-.053-.014.009-.025.016-.038.022l-.002.03M48.924 24.28h.022c.007-.023.013-.05.02-.08l-.042.08zM49.857 24.25c-.021-.007-.028.162-.037.236.013-.07.028-.103.046-.116.001-.033-.002-.071-.009-.12M51.334 24.548l.026-.023c-.005.007-.017.014-.026.023M48.257 24.243c0-.025-.005-.047-.008-.06 0 .021.003.041.008.06M22.189 25.517v-.03c-.006.017-.008.03 0 .03M21.108 24.678l.016-.009c0-.033.003-.064.003-.095l-.02.104zM43.624 23.895l.005.003c.022-.019.009-.016-.005-.003M35.721 24.02c.09.152-.146.195-.01.363-.013-.066.121-.264.01-.363M51.52 25.212c-.013.002-.026.003-.039.002.017.005.03.005.038-.002M35.71 24.383v.001l.014.017-.013-.018M41.641 23.997c.004.03.012.053.02.074 0-.017-.005-.038-.02-.074M43.119 24.238l-.037-.023c.015.017.026.021.037.023M40.874 24.237c-.021-.013-.027-.037-.054-.014.002.009.005.015.008.02.01-.022.024-.033.046-.006M40.075 24.238c.004.013.01.022.015.034l.025-.01-.04-.024zM24.616 25.436c-.018-.048-.028-.101-.037-.152.013.12-.105.163.037.152" transform="translate(.221) translate(37.779 3)"/>
            <path fill="#FEFEFE" d="M51.544 25.14c-.005.041-.012.063-.024.072l.026-.009c.002-.025.002-.049-.002-.064M40.841 25.573l-.127-.024c.035.017.081.024.127.024M30.344 25.411l-.029.021c.011.003.021 0 .03-.02M40.337 25.573c-.022-.06-.047-.093-.07-.117-.007.014-.013.024-.016.044l.086.073zM24.579 25.282v.002-.002z" transform="translate(.221) translate(37.779 3)"/>
            <path fill="#FEFEFE" d="M26.803 25.17c-.028-.006-.065-.007-.103-.006-.007-.059.001-.119.025-.116-.013.04.043.073.078.122m-3.06.514c.12.005.056-.218.081-.346.145-.063.068.164.117.278.09-.059.16-.264.226-.255.005.037.018.05.003.096.095-.177.282-.008.394-.23.008.02.011.038.014.054-.018-.11-.02-.225-.017-.306.054-.003.1-.14.121.005-.033-.004-.036.055-.052.1l.057-.063c.052.21-.077.073-.077.228.111-.069.24-.242.325-.183.017.205-.199.07-.086.251l-.13-.078c.1.323-.08-.023.012.323.172.06.193-.104.365-.044.04-.114-.013-.169.026-.283.245-.204.193.515.372.243.047-.137.066-.396.194-.259l-.044.232c.168.022.095-.333.27-.178-.03.091-.13.077-.105.104.113.184.08-.13.167-.13l.018.205c.178-.033.374-.18.572-.218-.01.06-.045.125.001.187.25-.102.531.026.771.147l.092-.177c.021.002.04.08.017.114.093.068.004-.112.05-.18.052-.013.07.1.035.154.165-.15.47-.324.645-.134l-.034.052c.135.072.152-.362.278-.197l-.024.031c.294.077.62-.085.842.182.043-.255.291.113.31-.242.168.176.12.24.356.358.063.016.094-.222.172-.259l.002.186.107-.195.055.222.074-.047c-.03-.012-.062-.084-.057-.138.114-.084.278.13.281.225l.271-.157c-.007.075-.052.1-.088.148.144-.189.026.196.16.022-.019-.042.008-.11.012-.148.065.112.216.113.327.066l-.022.128c.201.033.423-.06.648-.059-.08-.06-.062-.282.004-.303l.026.196c.043-.122-.068-.074.02-.223.084.023.055.224.008.287l.101-.067c.007.058-.018.09-.023.164.042-.122.176.197.236-.015l.006.06c.225 0 .327-.067.511-.077.003-.17.075-.132.13-.269.134.054.284.187.446.173.114-.085.033-.144.085-.244.008.154.171.14.087.25.194-.025.248-.03.495-.156-.028-.063-.058-.09-.042-.143.045-.026.101.065.095.138l-.01.017c.275-.232.637.45.857.128l-.012.016.228-.168c.105.027-.063.116.015.212.247-.258.39.037.592-.135.158.456.558-.03.77.26l-.013-.108c.055-.105.067.061.107.086-.006-.083-.06-.097-.026-.155.464-.129.958.157 1.434.254.175.028.098-.555.318-.299l-.062.2c.351-.24.718.007 1.062-.195-.02.046-.02.105-.054.105.072.144.268.007.27-.112.053.014.012.107.045.167.072.086.183-.185.221-.04.006.023-.02.046-.034.057.048-.069.221.02.176-.148.13.08.247-.075.35.024.067-.187.221.09.242-.174-.01.273.227.22.308.091-.028.083.071.086.04.2.091-.004.177-.054.161-.194.172.326.345-.263.441.155.277-.146.533-.246.781-.309-.008.271-.275.027-.263.312.235-.112.372-.345.605-.28.061.037-.034.118-.054.165.235-.112.456.025.666-.124 0 .026-.024.053-.045.074.042-.009.096.04.091-.084l-.04.034c-.066-.18.164-.375.171-.47-.069.355.208.09.096.537.027-.023.062-.08.056-.164.04.024.052.072.011.166.15-.067.096-.199.231-.196 0 .06-.028.083-.042.154.068-.117.137-.234.25-.184-.007.037.006.084-.027.083.194-.018.331-.31.544-.198-.062.26.074.085.084.31l.116-.067-.046-.109c.1.004.19-.16.276-.086l-.075.092.188-.042-.106-.086c.102-.116-.01-.285.123-.222-.027.023.101.003.153.135v.001c.05-.07.101-.147.175-.09.02.071-.015.248-.003.296.05-.188.236-.052.298-.253-.02.047-.022.165-.016.19l.042-.153c.046.05.053.072.046.166.14.03-.045-.285.121-.162-.012.012-.006.035-.033.058.167.065.323-.096.477-.02.045.225-.135.054-.083.245.221-.04.46-.272.673-.218l-.039-.025c.03-.32.16.158.267.007-.026.024-.035.178-.027.142.146.051.3-.079.522-.179l-.028.082c.087.073.228.042.321.08.03-.083.082-.069.05-.188.287.467.55-.25.805.14-.032 0-.073.07-.049.07l.218-.075c-.018-.139-.029-.084-.075-.193.028-.083.09-.147.143-.147-.098.093.001.224.044.302-.008-.043.007-.09.003-.133.114.247.02-.28.175-.113l-.008.072c.058-.037.111-.133.174-.112.026.161-.062.075-.067.207.09-.009.174-.305.254-.144-.037.044-.09.045-.129.09.087.19.097.141.162.171l-.006-.004.15.085-.039-.05c.11-.42.225-.078.373-.353-.145.261-.024.151-.035.333.038.051.095.108.08.16.068-.148.115.115.215-.1.005.06.075.005.06.153.09-.046-.023-.102-.015-.176.14-.2.331.244.533-.032.174-.113.206-.312.368-.41.055.094-.045.214-.045.214.088.087.154.07.237.003-.016.052 0 .095.026.161.067-.015.045-.214.133-.127-.015.065-.035.17-.067.236.078-.054.156-.164.238-.217.021.102-.049.156-.079.222.092-.046.238-.093.266-.255l-.059-.058c.034-.007.017.14-.007.17-.079.126-.114-.057-.118-.116l.058-.038c-.06-.345-.232.056-.349.036l.048-.25-.119.207c-.025-.066-.043-.205.015-.243-.083-.124-.074.09-.146-.049-.008-.022-.004-.033.003-.044l-.08.075c.015-.053-.015-.177.035-.14-.146-.145-.236.187-.29-.003l.011-.015c-.203.085-.02.184-.172.4l-.102-.454-.02.184c-.02-.007-.062-.02-.056-.094-.078.126.014.08-.03.2-.102-.169-.279.077-.303-.216-.036.14.097.108-.01.205-.032-.315-.125.055-.217-.09.028-.163.115-.077.023-.222-.055.275-.179-.06-.258-.008-.002.22-.168.091-.298.165.007-.074-.246-.12-.368-.2l.004-.037c-.023.221-.149.18-.24.226.004-.133.021-.185.07-.244l-.086.001c-.02.07-.047.108-.103.133l.021-.165c-.113.01-.229.195-.376.084-.008.155.117.43-.039.533-.005-.083-.01-.226.03-.26-.013.011-.047.07-.075.034l.063-.14c-.067-.063-.035.117-.089.103.001-.119-.039-.085-.03-.179.012-.01.045.05.065.002-.059-.02-.133-.092-.157-.182.005.068 0 .161-.044.176-.114.01-.039-.143-.105-.204-.028.082-.1-.003-.103.175-.033 0-.039-.084-.053-.133-.058.08-.275.023-.209.212l.016.013c-.003.003-.007.004-.01.008-.193.176-.402-.1-.594-.025v-.06c-.114.07-.254.041-.336.17-.035 0-.08-.11-.066-.18-.088.044-.098.111-.224.013.087-.104-.03-.093.09-.077-.114-.05-.139-.147-.26.016.04-.152-.087-.192-.142-.146l.08.11c-.06.021-.114.008-.168-.005l.03-.2c-.234-.245-.42.414-.598.006-.062.14.127.098.071.263-.106-.027-.219-.316-.252-.316-.146-.11-.137.293-.29.217.02.072.038.262-.077.33-.108-.027-.132-.3-.065-.358.027-.005.04.018.038.041.035-.025.08-.056.038-.134l-.015.072c-.053-.073-.2-.065-.166-.183-.08.068-.034.118.025.155-.137-.104-.214-.004-.356-.073.022.04.043.123.021.122-.208-.088-.09.136-.232.167-.08-.108.028-.26-.113-.169-.086-.073-.018-.189.016-.248-.13.14-.24-.09-.315-.116l.068-.057c-.04.034-.074.033-.107.033l.038.143c-.04-.025-.073-.026-.072-.085-.042.094.031.238-.05.366-.054-.073-.163.078-.18-.112.166.065-.019-.19.122-.22-.028.022-.06.021-.1-.005-.007-.02.005-.039.016-.05-.16-.17-.074.215-.24.21.021-.107-.038-.203-.065-.18.067.003.032.18-.03.261-.106-.084-.115.062-.17.052l.063.04c-.023.106-.075.093-.15.126-.005-.083.068-.057.041-.094-.082.188-.185-.195-.3-.068-.054-.073-.005-.2-.052-.25-.129.138-.14-.147-.275-.032.04.143.045.108-.049.25l.222-.103-.143.21c.067.002.141-.09.182-.067-.068.118-.06.082-.029.202-.092-.216-.182.125-.288-.02l.003-.357c-.159-.159-.283.183-.49.093l.066.062c-.028.142-.128.02-.195.078.006-.12-.035-.163-.065-.237.004.09-.15-.008-.17.23l-.092-.157c-.167-.064-.192.34-.352.3.048-.13-.025-.215.083-.307-.054-.002-.102-.024-.103.06-.032-.076-.149.16-.199.046-.022.052-.03.177-.089.168-.007-.025 0-.06 0-.06 0 .06-.095.081-.042.212-.166-.37-.462.027-.607-.292-.117.04-.258.08-.365.087.008-.035.001-.059.021-.047-.147-.11-.09.342-.257.218-.085-.192.088-.104.036-.177-.024-.39-.202.054-.315-.175l.028-.023c-.086-.133-.21.15-.35.121 0 0 .006-.035 0-.06-.096.2-.277.266-.413.322.042-.153.061-.082.036-.237-.06.022.018.25-.103.294-.04-.084-.127-.158-.138-.324l.114-.009c-.059-.215-.147.007-.208-.03l.008-.094c-.175.031-.177.268-.364.251l.02.071c-.104.234-.088-.132-.189.042l-.032-.238c-.067.058-.237.231-.358.275.068-.176.211-.267.3-.372-.069 0-.23.018-.265.136.027-.023.062-.082.088-.045-.082.187-.19.28-.324.275.023-.462-.349-.117-.445-.475-.237.171-.47-.073-.746-.045.098.36-.08.01-.063.38-.065.022-.089.016-.095-.008l-.194-.22c-.046-.107.061-.08.056-.164-.14-.028-.06-.156-.153-.254.02.132-.049.188-.129.138l.114.171c-.198.195-.17-.31-.369-.116l.063-.116c-.102.07-.375-.002-.475.294-.017-.042-.042-.143.003-.17-.242-.044-.54.315-.728.133l.017-.09c-.045.026-.078.17-.135.078.003-.037.018-.09-.002-.095-.025.031-.12.158-.18.106l.051-.102c-.238-.118-.364.247-.563.31.001-.267-.185-.353-.278-.395l.003-.038c-.276-.033-.469.22-.724.324-.159-.288-.537-.12-.792-.282.04.048-.006.206-.052.233-.059-.054-.165.184-.155-.059l.022.005c-.045-.239-.168-.176-.265-.182l-.016.318c-.25-.463-.657.17-.794-.244-.06.08-.135.078-.196.158l.004-.17c-.168-.044-.252-.066-.459-.025l.042-.122c-.117-.012-.147.492-.256.502l-.032-.255c-.204.004-.41-.22-.612.011.004-.037.01-.11.042-.12-.096-.008-.37-.173-.336.176-.003-.228-.21-.022-.322.08l.018-.169c-.094.214-.097.273-.227.333-.03-.022-.026-.135.015-.092-.103-.088-.08.16-.205.07l.047-.108c-.106-.013-.098.045-.155.17-.067.068-.2-.042-.216-.194-.015.092-.073.216-.134.172-.009-.057.014-.093.025-.11-.176-.114-.262.195-.383.03-.003-.056-.01-.083-.02-.1.14.004.252.013.241.025 0-.154-.113-.182-.023-.396-.09.117-.246.371-.357.298-.005-.015-.01-.03-.014-.053l.011-.018c-.025-.015-.048 0-.07.025-.035-.026-.058-.044-.09-.047-.014-.127-.13-.068-.187-.075.005.17-.07.142 0 .283-.009-.013.011-.02.048-.028.008-.005.018-.008.024-.017 0 .004-.003.01-.004.014.037-.005.085-.008.141-.01-.045.085-.092.158-.155.063-.028.11-.06.222-.078.274-.077-.236-.226-.364-.247-.51-.173.095-.406.063-.514.381-.049.041-.057-.09-.076-.14.03-.033.063-.028.078-.074-.098.082-.29.032-.314.255-.124-.1.07-.206-.1-.169l.023-.068c-.334-.356-.543.568-.914.112.026.027.04.04.044.078-.422-.202-.869.19-1.286-.13-.118-.065-.132.077-.203.185l-.027-.182-.123.21c-.176.154-.304-.447-.525-.156l.028.123c-.079-.024-.252.072-.238-.069-.009.023-.027.128-.058.064l-.003-.096-.195.163c-.15-.068.023-.377-.197-.396-.082.037-.235.277-.204.341.033.005.085.06.087.155l-.075.05c-.013.28-.072.568.114.764l.128-.172.041.136-.108.01c.062.127.101.013.144-.064.01.072.03.123.054.15l.126-.268c.016.11-.056.218.03.278.058-.124-.058-.246.04-.328.061.128.044.232.116.123.01.072-.005.118-.034.15.064-.087.171-.037.204-.186.063.157.217-.04.211.225.02-.064.113-.209.172-.22-.109.318.221.02.193.36.08-.286.288-.127.43-.286-.008.023-.024.07-.037.054.081.024.104.11.155.164.011-.236.134-.29.201-.436.098.228-.06.278-.028.497-.005-.192.17-.19.135-.35.076.14.065.067.104.263.013-.295.07-.05.131-.23.108.145.028.276.146.186.057.09-.049.195-.049.195" transform="translate(.221) translate(37.779 3)"/>
            <path fill="#FEFEFE" d="M26.234 24.218c-.005.003-.008.012-.016.012.008.015.016.029.023.038l.014-.053c-.007.003-.014.003-.021.003M47.744 24.47l-.005-.005c.004.008.008.015.01.026l-.005-.021M30.08 25.495L30.08 25.453 30.059 25.49zM49.051 25.052c.002.015.007.03.017.043 0-.011-.008-.026-.017-.043M49.616 25.09l.079.06c-.034-.035-.06-.05-.08-.06M50.05 25.174c.005-.03.006-.052.008-.073V25.1l-.009.074zM43.148 25.372c-.006.001-.012.003-.017.008-.039.033-.012.02.017-.008M45.202 24.976c-.021.031-.043.061-.066.08.037.013.065.017.066-.08M40.855 25.576v-.003h-.014l.014.003zM45.04 25.053c.037.034.067.027.096.003-.03-.01-.065-.027-.095-.003M51.93 25.25l.021.007.002-.027-.023.02zM51.954 25.23l.023-.02c-.01 0-.02.001-.023.02" transform="translate(.221) translate(37.779 3)"/>
            <path fill="#FEFEFE" d="M52.026 25.167l-.05.043c.018 0 .039.005.05-.043M51.356 25.172l-.007.062c.004-.014.006-.033.007-.062M51.181 25.19c.042.014.104.13.163.093l.005-.05c-.027.092-.128-.147-.168-.043M50.453 24.43l.146.049c-.025-.065-.06-.153.007-.169-.184-.195.038.146-.153.12M49.999 24.335c.079-.03-.001-.095.004-.132-.051.06-.063.074-.004.132M46.72 24.334l.008-.154c-.06.022 0 .06-.008.154M46.093 25.132L46.152 25.228 46.18 25.087zM45.723 24.033L45.749 24.011 45.649 24.067zM40.217 24.088l.018.19c.041-.034.05-.248-.018-.19M37.84 24.281c-.026-.095-.094-.156-.135-.062.054.013.108.086.134.062M30.71 23.972L30.759 23.908 30.669 23.961zM68.295 54.065c.033-.052.015-.169-.076-.146l-.066.2.142-.054zM67.683 53.696c-.106.097-.229.267-.16.45.105-.192.131-.112.245-.34.091-.023.16.064.144.138.032-.052.141.044.19-.082-.118-.154-.269-.161-.425-.033-.034-.044-.002-.096.006-.133M58.79 53.385l.059.023c-.016-.013-.036-.02-.058-.023M53.28 53.275c.043-.005.06-.025.063-.043-.04.013-.072.025-.062.043M52.34 53.055l.055.014c-.02-.019-.042-.029-.056-.014M58.79 53.385l-.146-.063c-.01.064.076.047.147.063M66.458 54.177c.03-.01.056-.028.08-.052l-.075.021-.005.031M61.22 53.223h.044c.014-.023.025-.051.037-.082l-.082.082zM63.084 53.192c-.043-.007-.058.162-.074.236.025-.069.056-.103.093-.116 0-.032-.005-.07-.02-.12M66.04 53.49l.052-.023c-.013.007-.036.014-.052.023M59.885 53.186c-.003-.025-.01-.048-.017-.06 0 .02.007.04.017.06M7.748 54.46v-.03c-.011.017-.015.029 0 .03M5.587 53.62l.03-.009c.003-.032.006-.064.006-.095l-.037.104zM50.619 52.838l.007.003c.046-.019.019-.016-.007-.003M34.813 52.963c.179.151-.291.194-.021.362-.026-.066.245-.264.021-.362M66.409 54.155c-.024.002-.051.003-.076.001.035.006.058.005.076 0M34.791 53.325v.002l.028.017-.028-.019M46.65 52.94c.01.03.025.053.042.074-.001-.017-.011-.038-.041-.074M49.607 53.18l-.073-.021c.029.015.052.02.073.022M45.117 53.179c-.04-.013-.053-.036-.107-.014.004.009.009.015.016.021.02-.023.046-.034.09-.007M43.52 53.18c.008.013.02.023.03.034l.05-.009-.08-.025zM12.601 54.378c-.035-.048-.057-.1-.073-.152.024.12-.21.163.073.152M66.457 54.082c-.01.043-.023.064-.048.073.019-.002.036-.005.054-.01.004-.024.005-.048-.006-.063M45.052 54.516l-.254-.025c.071.017.163.025.254.025M24.06 54.354l-.06.02c.023.004.043 0 .06-.02M44.045 54.516c-.046-.06-.094-.094-.143-.117-.01.013-.023.024-.03.044l.173.073zM12.527 54.224v0" transform="translate(.221) translate(37.779 3)"/>
            <path fill="#FEFEFE" d="M15.973 52.939c.075-.024.101.009.111.044-.036.003-.077.009-.132.02 0 .006-.006.014-.008.02.008-.031.015-.062.03-.084m1.003 1.174c-.058-.006-.129-.007-.206-.006-.016-.06.002-.12.05-.116-.027.039.086.073.156.122m-.475.003v.004l-.116.009c.024-.003.058-.005.116-.013m-5.646.51c.241.006.113-.217.165-.345.288-.063.133.164.231.278.18-.06.32-.264.453-.255.01.037.037.05.005.096.191-.177.566-.008.787-.231.017.02.026.039.03.055-.036-.111-.04-.224-.034-.306.108-.003.201-.14.242.005-.067-.004-.073.055-.104.1l.114-.063c.102.209-.155.073-.155.228.222-.068.48-.242.65-.183.035.205-.398.069-.17.25l-.264-.077c.201.323-.159-.022.025.323.346.06.387-.104.732-.044.077-.114-.027-.17.052-.283.49-.204.385.515.746.243.092-.137.13-.396.385-.26l-.087.233c.335.023.191-.333.541-.178-.062.092-.263.077-.212.105.227.183.16-.131.335-.131l.036.205c.356-.033.75-.181 1.143-.218-.022.06-.09.125.003.188.497-.103 1.062.025 1.541.146l.184-.177c.043.002.08.08.033.114.188.068.01-.112.1-.181.106-.012.14.1.073.155.33-.15.94-.324 1.288-.134l-.068.052c.27.072.305-.362.556-.197l-.048.03c.588.078 1.238-.084 1.686.183.085-.255.582.113.62-.242.335.176.24.24.712.358.126.016.187-.222.344-.26l.004.187.212-.195.112.222.146-.047c-.058-.011-.124-.084-.114-.138.228-.084.557.13.563.225l.541-.157c-.013.075-.103.1-.175.148.29-.19.053.196.317.022-.035-.042.02-.111.026-.148.131.112.431.113.654.066l-.043.128c.401.033.846-.061 1.296-.06-.16-.06-.124-.281.008-.302l.052.196c.085-.121-.137-.074.037-.223.168.023.114.224.017.287l.204-.067c.013.058-.035.089-.048.164.084-.122.353.197.474-.015l.012.059c.45 0 .654-.066 1.021-.076.007-.17.151-.132.26-.27.268.055.568.188.892.174.23-.084.067-.144.17-.244.017.154.341.14.173.25.39-.025.497-.03.99-.156-.053-.063-.114-.091-.083-.143.09-.026.205.065.191.139l-.024.016c.554-.232 1.278.45 1.718.128l-.024.016.456-.168c.21.027-.126.116.03.212.492-.258.778.037 1.184-.134.314.455 1.115-.032 1.54.259l-.026-.108c.11-.105.132.06.213.086-.01-.083-.119-.097-.05-.155.927-.13 1.916.157 2.867.254.348.028.198-.555.636-.3l-.125.2c.704-.24 1.437.008 2.124-.194-.04.046-.042.105-.109.105.146.144.537.007.54-.112.107.014.025.107.091.167.145.086.365-.184.443-.041.013.024-.04.048-.068.059.096-.07.442.018.351-.15.26.08.495-.074.701.025.133-.187.441.09.483-.174-.018.273.453.22.616.092-.054.082.142.085.078.199.186-.003.357-.054.325-.194.342.326.69-.263.882.156.553-.147 1.066-.247 1.563-.31-.018.27-.55.027-.528.313.471-.113.744-.346 1.212-.281.121.037-.069.118-.11.165.472-.112.912.025 1.331-.123 0 .025-.046.052-.089.073.083-.01.193.04.183-.084l-.08.034c-.132-.18.328-.375.343-.47-.14.355.415.09.191.537.055-.023.123-.081.11-.164.081.024.107.072.025.166.297-.067.191-.2.46-.196 0 .06-.056.083-.083.154.136-.117.272-.234.5-.183-.015.036.012.083-.056.082.39-.018.664-.311 1.091-.198-.126.26.145.086.168.31l.23-.067-.092-.11c.201.005.38-.16.552-.085l-.15.092.378-.042-.214-.086c.204-.116-.02-.284.246-.222-.055.023.201.003.307.135.098-.07.201-.146.35-.09.038.072-.032.249-.006.297.098-.188.471-.052.595-.253-.04.047-.043.165-.03.19l.083-.153c.093.049.106.072.092.167.28.028-.089-.286.244-.163-.026.012-.015.035-.068.058.334.065.645-.096.953-.021.09.226-.269.055-.165.246.443-.041.917-.271 1.345-.218l-.079-.025c.06-.32.32.158.535.007-.052.024-.069.178-.054.142.294.05.6-.08 1.045-.18l-.056.083c.174.074.456.042.643.08.055-.082.163-.07.097-.188.576.467 1.1-.251 1.611.139-.062 0-.146.07-.097.07l.434-.074c-.034-.14-.056-.084-.148-.193.056-.082.18-.147.286-.147-.196.093.002.225.087.302-.015-.043.015-.09.007-.133.227.248.038-.28.348-.113l-.016.073c.117-.038.224-.134.35-.113.051.16-.125.075-.132.208.175-.01.346-.306.507-.145-.076.044-.183.045-.258.09.174.189.194.14.322.17l-.013-.003.3.085-.077-.051c.221-.42.45-.077.745-.352-.288.26-.047.15-.069.333.075.05.19.108.158.159.14-.147.234.116.432-.1.01.06.15.007.12.154.18-.046-.045-.102-.03-.176.282-.201.661.244 1.066-.032.348-.113.413-.312.736-.41.11.094-.089.214-.089.214.176.087.31.07.475.004-.034.05.001.094.052.16.132-.015.088-.214.264-.127-.03.065-.069.17-.133.236.157-.054.312-.164.475-.217.043.102-.099.156-.156.222.182-.046.473-.093.53-.254l-.117-.06c.066-.006.034.14-.015.17-.157.127-.226-.056-.235-.115l.116-.037c-.119-.346-.465.055-.698.035l.098-.251-.24.208c-.05-.065-.086-.205.03-.243-.167-.124-.148.089-.29-.05-.018-.02-.01-.032.004-.043l-.163.075c.032-.052-.027-.177.074-.141-.293-.144-.473.188-.583-.002l.024-.015c-.406.085-.039.184-.345.4l-.205-.454-.039.184c-.042-.007-.125-.02-.11-.094-.156.126.027.08-.064.199-.202-.167-.556.079-.602-.215-.073.14.193.108-.023.205-.06-.315-.249.055-.432-.09.055-.163.231-.077.046-.222-.11.275-.359-.06-.515-.007-.007.218-.338.09-.599.164.017-.074-.49-.121-.733-.2l.007-.037c-.047.222-.298.18-.48.226.007-.133.04-.185.14-.244h-.173c-.04.07-.094.109-.205.134l.043-.165c-.228.009-.459.195-.753.084-.017.155.233.43-.077.533-.01-.083-.023-.226.058-.26-.026.01-.094.069-.148.034l.124-.141c-.134-.062-.07.118-.177.104.002-.12-.079-.085-.063-.18.026-.01.093.05.134.004-.12-.022-.267-.093-.315-.182.011.067 0 .16-.088.175-.228.009-.078-.143-.21-.204-.056.082-.202-.003-.206.175-.066-.001-.079-.084-.105-.132-.117.078-.55.022-.418.21l.03.014c-.006.004-.013.004-.019.008-.387.176-.804-.101-1.188-.025v-.06c-.229.069-.51.04-.674.169-.067 0-.16-.11-.13-.18-.175.045-.196.112-.449.014.177-.104-.06-.093.181-.077-.228-.051-.28-.147-.524.016.083-.152-.172-.192-.279-.146l.16.109c-.123.022-.228.009-.337-.004l.06-.201c-.468-.244-.842.415-1.196.007-.124.14.252.099.142.263-.214-.027-.437-.315-.505-.316-.293-.111-.273.293-.58.217.04.072.076.263-.154.33-.214-.027-.264-.3-.128-.358.052-.005.076.018.074.04.07-.024.16-.055.075-.133l-.027.072c-.106-.073-.402-.065-.333-.183-.162.068-.069.118.051.155-.275-.104-.43-.003-.713-.073.046.039.087.123.042.122-.415-.088-.183.136-.465.168-.159-.11.058-.261-.226-.17-.172-.073-.036-.19.033-.248-.258.139-.483-.09-.63-.115l.137-.058c-.083.034-.149.033-.216.033l.077.143c-.08-.025-.148-.026-.146-.085-.083.094.063.238-.1.366-.107-.073-.324.078-.36-.112.333.065-.038-.191.245-.221-.054.023-.12.022-.2-.004-.013-.021.01-.04.033-.05-.32-.17-.148.215-.48.21.042-.107-.077-.202-.13-.18.133.003.063.179-.059.26-.213-.083-.232.063-.343.053l.127.039c-.043.107-.15.094-.298.127-.013-.083.135-.057.082-.094-.165.188-.372-.195-.603-.068-.106-.073-.009-.201-.103-.25-.257.139-.278-.147-.55-.032.078.143.092.108-.099.249l.446-.102-.285.21c.133.002.283-.091.363-.066-.136.117-.122.08-.058.2-.183-.215-.364.127-.577-.02l.007-.355c-.319-.16-.567.182-.982.092l.133.062c-.055.142-.256.02-.389.078.011-.12-.072-.163-.129-.237.007.089-.304-.008-.34.23l-.187-.157c-.334-.064-.38.339-.704.299.098-.13-.049-.214.167-.306-.107-.002-.204-.023-.206.059-.062-.075-.298.16-.396.048-.045.052-.06.176-.18.167-.014-.025 0-.06 0-.06 0 .06-.189.08-.084.212-.33-.371-.925.027-1.213-.292-.234.04-.516.079-.729.087.013-.035.001-.06.041-.047-.294-.11-.18.342-.515.219-.17-.193.177-.104.071-.178-.047-.391-.404.054-.629-.175l.055-.023c-.172-.133-.419.149-.7.12 0 0 .014-.034.002-.058-.193.199-.556.265-.826.32.085-.152.123-.08.072-.236-.12.022.035.25-.206.294-.079-.084-.253-.158-.276-.324l.227-.01c-.116-.214-.295.008-.415-.03l.016-.093c-.35.03-.355.268-.73.25l.04.072c-.207.235-.174-.132-.378.042l-.062-.237c-.135.057-.474.23-.717.274.138-.176.422-.267.598-.372-.135-.001-.456.018-.527.136.055-.023.122-.081.176-.045-.165.187-.38.279-.648.275.046-.461-.698-.116-.892-.475-.473.17-.938-.072-1.489-.045.195.359-.16.01-.127.379-.129.023-.178.017-.19-.007l-.388-.22c-.093-.107.122-.081.11-.164-.28-.028-.118-.156-.304-.254.038.132-.097.189-.258.139l.226.17c-.393.196-.34-.31-.736-.116l.126-.116c-.203.069-.75-.002-.949.294-.037-.042-.083-.143.005-.17-.485-.044-1.08.315-1.458.133l.037-.09c-.09.026-.158.169-.27.078.005-.037.035-.09-.006-.095-.049.03-.24.158-.36.106l.101-.102c-.473-.118-.726.247-1.124.309.001-.266-.37-.352-.557-.394l.007-.038c-.552-.033-.938.22-1.449.324-.316-.288-1.073-.121-1.583-.282.078.048-.012.206-.103.233-.119-.053-.33.184-.312-.06l.043.006c-.09-.24-.336-.176-.528-.182l-.03.318c-.503-.463-1.317.17-1.59-.244-.12.079-.272.078-.392.158l.007-.171c-.336-.043-.503-.065-.918-.024l.085-.122c-.234-.011-.296.492-.512.502l-.064-.255c-.408.004-.82-.22-1.225.01.006-.036.02-.11.084-.12-.19-.007-.743-.172-.673.177-.005-.227-.42-.022-.64.079l.033-.168c-.187.214-.192.273-.452.333-.062-.022-.054-.135.028-.092-.205-.088-.16.159-.409.07l.093-.108c-.21-.012-.195.045-.31.17-.133.068-.4-.042-.432-.194-.029.092-.144.216-.268.172-.018-.057.028-.093.051-.11-.353-.114-.525.195-.768.03-.005-.056-.02-.083-.04-.1.28.004.505.013.484.025 0-.154-.226-.182-.046-.396-.182.117-.493.37-.713.298-.01-.015-.022-.03-.03-.053l.023-.018c-.05-.015-.097-.001-.14.025-.07-.025-.115-.044-.182-.047-.027-.127-.26-.068-.373-.075.01.17-.139.142 0 .283-.018-.013.021-.021.096-.028.018-.005.037-.007.048-.017l-.007.015c.073-.005.171-.01.281-.012-.089.086-.183.159-.308.064-.058.11-.12.222-.157.274-.155-.236-.452-.364-.494-.51-.345.095-.813.063-1.03.38-.097.042-.112-.09-.149-.14.056-.032.124-.027.154-.073-.195.082-.58.032-.627.255-.248-.101.14-.206-.2-.17l.045-.067c-.668-.355-1.086.568-1.826.112.051.027.076.04.087.078-.844-.202-1.74.189-2.573-.131-.237-.064-.262.078-.407.186l-.052-.182-.247.21c-.35.154-.606-.447-1.049-.156l.056.123c-.159-.024-.504.072-.477-.07-.017.024-.053.129-.116.065l-.005-.096-.39.163c-.304-.068.047-.377-.396-.396-.164.037-.468.277-.407.34.067.006.17.06.175.156l-.15.049c-.028.28-.143.569.226.765l.257-.172.083.136-.216.009c.123.128.2.015.288-.063.021.072.057.123.108.15l.253-.268c.03.109-.114.218.056.278.118-.124-.114-.246.082-.328.123.128.087.232.232.123.02.072-.01.118-.068.15.13-.087.341-.036.408-.186.127.157.434-.041.421.225.04-.064.227-.21.345-.22-.216.318.443.019.386.36.16-.286.577-.127.86-.286-.015.023-.047.069-.072.054.16.024.206.11.308.164.02-.236.27-.29.403-.436.194.228-.119.278-.058.497-.009-.192.34-.191.273-.351.15.14.13.068.206.264.026-.295.138-.05.263-.231.215.146.055.277.292.187.114.09-.097.195-.097.195" transform="translate(.221) translate(37.779 3)"/>
            <path fill="#FEFEFE" d="M15.838 53.16c-.01.005-.017.012-.03.013.014.015.03.028.044.038.01-.017.018-.035.027-.052-.015 0-.028 0-.04.002M58.858 53.412l-.01-.003c.008.006.016.013.02.024-.005-.01-.005-.014-.01-.021M23.531 54.437L23.53 54.395 23.489 54.432zM61.472 53.994c.005.015.015.03.034.043-.002-.011-.016-.026-.034-.043M62.6 54.032l.16.06c-.069-.034-.119-.051-.16-.06M63.47 54.116c.01-.03.013-.052.016-.073l-.002-.001-.015.074zM49.666 54.315c-.011 0-.022.003-.032.007-.08.034-.026.02.032-.007M53.774 53.92c-.044.03-.087.06-.132.08.073.012.13.015.132-.08M45.08 54.52v-.004h-.027l.027.003zM53.45 53.996c.074.034.136.026.192.003-.06-.012-.13-.029-.191-.003M67.231 54.193l.042.007c-.001-.011.002-.02.005-.027l-.047.02zM67.278 54.173l.047-.02c-.022 0-.04 0-.047.02" transform="translate(.221) translate(37.779 3)"/>
            <path fill="#FEFEFE" d="M67.422 54.11l-.098.043c.034 0 .076.006.098-.043M66.083 54.114l-.014.063c.007-.014.012-.033.014-.063M65.733 54.132c.083.014.209.131.325.093l.01-.049c-.054.091-.256-.148-.335-.044M64.275 53.372l.293.05c-.051-.066-.118-.154.015-.17-.37-.195.076.146-.308.12M63.368 53.278c.157-.031-.002-.095.007-.132-.1.059-.124.074-.007.132M56.81 53.277l.017-.154c-.12.022 0 .06-.017.154M55.557 54.074L55.675 54.17 55.731 54.029zM54.817 52.975L54.87 52.953 54.668 53.009zM43.804 53.03l.036.19c.082-.034.1-.248-.036-.19M39.05 53.223c-.053-.095-.186-.156-.269-.062.108.013.214.086.268.062M24.791 52.914L24.887 52.85 24.706 52.903z" transform="translate(.221) translate(37.779 3)"/>
            <path fill="#2E5BCC" d="M41.314 17.796h-9.057c-.549 0-1-.45-1-1V1c0-.55.451-1 1-1h9.057c.55 0 1 .45 1 1v15.796c0 .55-.45 1-1 1" transform="translate(.221) translate(37.779 3)"/>
            <path fill="#4E68AF" d="M25.734 47.945h-9.057c-.55 0-1-.45-1-1V31.149c0-.55.45-1 1-1h9.057c.55 0 1 .45 1 1v15.796c0 .55-.45 1-1 1" transform="translate(.221) translate(37.779 3)"/>
            <g transform="translate(.221) translate(37.779 3) translate(0 60.093)">
                <mask id="aydaxt9tub" fill="#fff">
                    <use xlink:href="#7dab7euxga"/>
                </mask>
                <path fill="#4E68AF" d="M10.057 18H1c-.549 0-1-.45-1-1V1.204c0-.55.451-1 1-1h9.058c.55 0 1 .45 1 1V17c0 .55-.45 1-1 1" mask="url(#aydaxt9tub)"/>
            </g>
            <path fill="#2E5BCC" d="M25.734 78.093h-9.057c-.55 0-1-.45-1-1V61.297c0-.55.45-1 1-1h9.057c.55 0 1 .45 1 1v15.796c0 .55-.45 1-1 1" transform="translate(.221) translate(37.779 3)"/>
            <path fill="#4E68AF" d="M41.314 78.093h-9.057c-.549 0-1-.45-1-1V61.297c0-.55.451-1 1-1h9.057c.55 0 1 .45 1 1v15.796c0 .55-.45 1-1 1M57.088 78.093h-9.057c-.549 0-1-.45-1-1V61.297c0-.55.451-1 1-1h9.057c.55 0 1 .45 1 1v15.796c0 .55-.45 1-1 1" transform="translate(.221) translate(37.779 3)"/>
            <g transform="translate(.221) translate(37.779 3) translate(62 60.093)">
                <mask id="io6iw6hlcd" fill="#fff">
                    <use xlink:href="#gkw2i2iy9c"/>
                </mask>
                <path fill="#4E68AF" d="M10.765 18H1.708c-.549 0-1-.45-1-1V1.204c0-.55.451-1 1-1h9.057c.55 0 1 .45 1 1V17c0 .55-.45 1-1 1" mask="url(#io6iw6hlcd)"/>
            </g>
        </g>
    </g>
</svg>
