<svg id="svg173" version="1.1" viewBox="0 0 224 165" width="100%" height="100%"
    xmlns="http://www.w3.org/2000/svg"
    xmlns:xlink="http://www.w3.org/1999/xlink">
    <defs id="defs10">
        <path id="7rgh8mu0ma" d="m0 .011h4.167v2.008h-4.167z" />
        <path id="bm93r1eded" d="m.195 0h36.732v26.341h-36.732z" />
        <path id="9il7euim1f" d="m0 .153h36.796v4.353h-36.796z" />
        <path id="4k0c7fn3nh" d="m.144.022h37.543v30.236h-37.543z" />
        <path id="hm9uz66olj" d="m.002.271h13.191v2.567h-13.191z" />
        <path id="f3qzehjz9l" d="m.001.006h11.812v12.271h-11.812z" />
        <path id="ytyxfhnfrn" d="m0 .005h6.421v11.331h-6.421z" />
    </defs>
    <g id="g171" transform="translate(52.5 20)" fill="none" fill-rule="evenodd">
        <path id="path12" d="m118.95 107.36c-1.603-13.12-87.635-38.444-103.61-26.017-15.972 12.428-.617 35.751 32.853 41.724 33.47 5.972 72.356-2.586 70.753-15.707z" fill="#9accff" opacity=".5" />
        <path id="path14" d="m0 52v-6h100v6h-1v46h-1.013l-2.987-46h-2l-2.987 46h-1.013v-46h-78v46h-1.224l-2.776-46h-2l-2.776 46h-1.224v-46z" fill="#c5cfd6" />
        <g id="g50" fill-rule="nonzero">
            <g id="g42" transform="matrix(-1,0,0,1,98.36,0)">
                <path id="path16" d="m13.902 21.901-2.62-.642c-2.026.002-3.946-.911-5.23-2.488-1.283-1.576-1.795-3.65-1.394-5.647-.006-4.901 3.938-8.88 8.81-8.886 4.87-.006 8.824 3.962 8.83 8.864 1.486 5.203-3.168 10.082-8.396 8.8z" fill="#2f2e41" />
                <ellipse id="ellipse18" cx="16.765" cy="16.308" rx="6.481" ry="6.521" fill="#ffb8b8" />
                <path id="path20" d="m12.539 19.71s-1.973 6.805-3.1 7.372 9.017 1.418 9.017 1.418-.282-6.521.282-7.088c.563-.567-6.2-1.702-6.2-1.702z" fill="#ffb8b8" />
                <path id="path22" d="m22.682 61.672s12.68-1.134 14.37 3.118c1.69 4.253-1.127 29.487-1.127 29.487h-5.353v-20.697s-22.827-6.53-22.827-8.798 14.937-3.11 14.937-3.11z" fill="#505361" />
                <path id="path24" d="m35.08 93.142 2.818 1.135s3.38-.284 1.972 2.268c-.817 1.5-2.27 2.544-3.945 2.835 0 0-5.353 1.985-5.635 0s1.409-5.954 1.409-5.954z" fill="#2f2e41" />
                <path id="path26" d="m15.638 61.672s12.68-1.134 14.37 3.118c1.69 4.253-1.127 29.487-1.127 29.487h-5.353v-20.697s-16.204-3.777-16.204-6.045c0-1.066-1.104-6.481.842-7.622 2.196-1.288 7.472 1.759 7.472 1.759z" fill="#505361" />
                <path id="path28" d="m28.036 93.142 2.817 1.135s3.382-.284 1.973 2.268c-.817 1.5-2.27 2.544-3.945 2.835 0 0-5.353 1.985-5.635 0s1.409-5.954 1.409-5.954l3.38-.284z" fill="#2f2e41" />
                <path id="path30" d="m9.721 26.231 8.468.927c2.68.293 4.87 2.286 5.428 4.941l3.292 15.68s1.127 15.594-1.127 16.444-5.354-3.402-9.58-2.835c-4.227.567-9.721 1.843-9.721 1.843s-.873-27.912-.987-30.195c-.227-4.564 4.227-6.805 4.227-6.805z" fill="#d4e4f4" />
                <ellipse id="ellipse32" cx="4.186" cy="6.792" rx="4.186" ry="4.212" fill="#2f2e41" />
                <path id="path34" d="m8.049 4.528c-.001-1.262-.564-2.457-1.535-3.256-.97-.798-2.246-1.117-3.475-.868 1.461-.695 3.191-.48 4.441.551 1.25 1.032 1.798 2.696 1.406 4.275-.391 1.58-1.652 2.79-3.236 3.11 1.466-.695 2.401-2.18 2.4-3.811zm3.591 2.389 5.644-1.046 4.34 2.737c2.179 1.375 3.363 3.9 3.033 6.466l-4.347-1.11-.973-2.455-1.16 1.912-6.061 7.849-3.403-2.18-3.034-4.785z" fill="#2f2e41" />
                <path id="path36" d="m16.288 28.643 2.817-1.417s5.917.85 7.044 4.82c1.128 3.969 6.2 31.47 6.2 31.47l-4.79 2.269-6.763-16.728z" fill="#d4e4f4" />
                <path id="path38" d="m18.686 39.8 2.82 11.014 5.001 12.37-.173.429-5.965-12.592z" fill="#000000" opacity=".2" />
                <path id="path40" d="m29.779 62.482 3.476 2.06s6.237-.9 6.042 1.305c-.195 2.206-7.002 1.78-7.002 1.78l-4.19-2.598z" fill="#ffb8b8" />
            </g>
            <g id="g48">
                <path id="path44" transform="matrix(-1,0,0,1,106,48.397)" d="m2.853 57.469-1.103-.382 10.682-31.928 1.545.535zm40.83 0 1.103-.382-10.683-31.928-1.544.535zm-22.573 6.594 1.166.004.363-37.323-1.633-.006z" fill="#000000" />
                <path id="path46" transform="matrix(-1,0,0,1,106,48.397)" d="m.153 6.399 3.2 13.013c.913 3.713 3.79 6.616 7.478 7.543 8.924 2.245 18.267 2.185 27.161-.176l4.778-1.267c2.775-.737 4.863-3.136 5.06-6.018.08-1.019-.103-2.041-.532-2.967l-.056-.12c-1.27-2.624-3.882-4.323-6.782-4.411l-5.06-.165-18.431-8.216s-6.34-3.24-11.55-3.603c-3.443-.24-6.096 3.018-5.267 6.388z" fill="#002aaf" />
            </g>
        </g>
        <g id="g77">
            <path id="path52" transform="rotate(1 -493.95 2582.7)" d="m3.89 6.66h-3.614c-.06 0-.115-.022-.158-.057l.05.164c.075.207.27.344.489.344h3.231c.219 0 .385-.174.46-.38l-.182-.071m-1.309-2.089-.185-.634c-.185.064-.383.099-.589.099-.205 0-.403-.035-.589-.1l-.184.635z" fill="#b1dbfc" />
            <g id="g59" transform="rotate(1 -755.84 2580.4)">
                <mask id="w0c2i3l13b" fill="#ffffff">
                    <use id="use54" width="100%" height="100%" xlink:href="#7rgh8mu0ma" />
                </mask>
                <path id="path57" d="m3.67.305c-.061-.175-.222-.294-.403-.294h-2.367c-.18 0-.342.119-.404.294l-.48 1.358c-.061.173.062.356.238.356h.972l.104-.293c.03-.084.106-.14.192-.14h1.122c.086 0 .163.056.192.14l.104.293 1.108.377c.176 0 .164-.56.103-.733z" fill="#dfebfa" mask="url(#w0c2i3l13b)" />
            </g>
            <path id="path63" transform="rotate(1 -493.95 2582.7)" d="m2.976 6.73-.117-.354c-.03-.092-.11-.154-.198-.154h-1.156c-.088 0-.167.062-.198.154l-.117.354z" fill="#2e5bcc" />
            <path id="path65" transform="rotate(1 -493.95 2582.7)" d="m2.143 6.222h-.638c-.088 0-.167.062-.198.154l-.117.354h.639l.116-.354c.03-.092.11-.154.198-.154" fill="#2e5bcc" />
            <path id="path67" transform="rotate(1 -493.95 2582.7)" d="m2.143 0c1.052 0 1.905.91 1.905 2.032s-.853 2.031-1.905 2.031-1.905-.91-1.905-2.031c0-1.122.853-2.032 1.905-2.032" fill="#002aaf" />
            <path id="path69" transform="rotate(1 -493.95 2582.7)" d="m2.083.635c.756 0 1.37.654 1.37 1.46 0 .807-.614 1.46-1.37 1.46s-1.369-.653-1.369-1.46c0-.806.613-1.46 1.37-1.46" fill="#2e5bcc" />
            <path id="path71" transform="rotate(1 -493.95 2582.7)" d="m1.3 2.095c0-.7.463-1.284 1.081-1.427-.094-.022-.192-.033-.293-.033-.759 0-1.374.654-1.374 1.46 0 .807.615 1.46 1.374 1.46.1 0 .199-.011.293-.033-.618-.142-1.081-.727-1.081-1.427" fill="#002aaf" />
            <path id="path73" transform="rotate(1 -493.95 2582.7)" d="m2.083 1.143c.428 0 .774.398.774.889 0 .49-.346.889-.774.889-.427 0-.773-.398-.773-.89 0-.49.346-.888.773-.888" fill="#8bcaff" />
            <path id="path75" transform="rotate(1 -493.95 2582.7)" d="m2.083 1.778c.165 0 .298.142.298.317 0 .176-.133.318-.298.318-.164 0-.297-.142-.297-.318 0-.175.133-.317.297-.317" fill="#5cb3f8" />
        </g>
        <g id="g107" transform="matrix(-1,0,0,1,66,12)">
            <mask id="4vafnk5mfe" fill="#ffffff">
                <use id="use79" width="100%" height="100%" xlink:href="#bm93r1eded" />
            </mask>
            <path id="path82" d="m.24 26.334c2.67-.112 5.34-.216 8.011-.311 4.736-.169 9.472-.31 14.21-.425 4.751-.114 9.505-.202 14.258-.262-.955-14.448-.633-21.232.13-24.305.043-.174.169-.552-.035-.905-.389-.672-18.083 1.329-34.13 6.371l-.023.068c-1.066 6.56-1.887 13.157-2.466 19.775.014-.004.029-.006.045-.007" fill="#edeced" mask="url(#4vafnk5mfe)" />
            <g id="g89" transform="translate(0,25.54)">
                <mask id="8d35s1wivg" fill="#ffffff">
                    <use id="use84" width="100%" height="100%" xlink:href="#9il7euim1f" />
                </mask>
                <path id="path87" d="m28.729.28c-4.739.09-9.476.208-14.212.352-4.76.146-9.52.319-14.277.518-.029.002-.054-.003-.076-.01-.047.553-.096 1.107-.141 1.66l.011.028c-.052.412-.045.83.024 1.24.016.095.037.193.095.27.127.168.37.178.588.16 4.673-.008 9.347-.027 14.02-.054 4.68-.027 9.36-.064 14.04-.11l4.07-.041 2.034-.023c.482-.005 1.344.161 1.66-.302.137-.203.146-.46.151-.703l.048-2.285.032-.07-.052-.757c-2.672.034-5.344.076-8.014.127" fill="#283378" mask="url(#8d35s1wivg)" />
            </g>
            <path id="path91" d="m12.479 34.577c1.166-.196 2.326-.42 3.478-.672.542-.119 1.008-.376 1.453-.68.144-.097.296-.747.293-1.146-.004-.574-.074-1.147-.21-1.707l.05.002c1.088-.033 6.279-.19 7.483-.04.051.006.224-.028.265.083.048.13.65 1.701.181 2.651-.055.111-.107.197-.133.24l-.045.033c-1.078.8-3.86 1.698-5.378 1.658-.8-.021-1.628-.006-2.429-.01-.617-.004-1.246-.028-1.863 0-1.027.046-2.008-.073-3.033-.143-.133-.01-.313-.127-.21-.205" fill="#283378" />
            <mask id="etptu7u9li" fill="#ffffff">
                <use id="use93" width="100%" height="100%" xlink:href="#4k0c7fn3nh" />
            </mask>
            <path id="path96" d="m37.624.148c.131.125.02 1.274 0 1.638-.393 6.93-1.18 19.402-.262 27.843.097.887-37.255.659-37.218.379.035-.27 31.452 0 32.894-.252.285-.05 2.358 0 2.358 0s1.46 0 1.442-.378c-.524-10.71-1.048-18.521-.131-29.356 0 0 .786 0 .917.126" fill="#527dbf" mask="url(#etptu7u9li)" />
            <path id="path98" d="m4.442 7.768c.65-.25 29.618-5.504 30.268-4.878.65.625.594 21.226-.26 21.39-.65.126-30.397 1.377-31.436 1.252-.645-.078.779-17.513 1.428-17.764" fill="#b0c5e7" />
            <g id="g105" transform="translate(12.35,32.162)">
                <mask id="wi6qhhaexk" fill="#ffffff">
                    <use id="use100" width="100%" height="100%" xlink:href="#hm9uz66olj" />
                </mask>
                <path id="path103" d="m.13 2.364c1.173-.21 2.319-.54 3.477-.809.546-.126 1.367-.49 1.472-.642.268-.385.268-.642.268-.642-.036.066 7.895.273 7.846.478-.004.013-.046.063-.078.156-.009.025-.02.064-.056.101 0 0-.02.02-.045.035-1.529.913-2.538 1.224-2.538 1.224-.536.165-1.532.466-2.869.55-.492.031-.458-.003-2.441-.01-1.173-.005-1.76-.007-1.873 0 0 0-2.322.14-3.05-.154-.06-.024-.248-.1-.24-.175.002-.02.02-.036.029-.043" fill="#203f8d" mask="url(#wi6qhhaexk)" />
            </g>
        </g>
        <g id="g129">
            <g id="g113">
                <path id="path109" transform="translate(10,15)" d="m3.067.146c.348-.043.72-.028 1.043.113.688.3.883 1.133.874 1.81-.01.73-.161 1.526.38 2.113.248.27.557.477.8.752.261.294.466.63.617.992.278.663.415 1.443.16 2.139-.223.613-.787 1.166-.665 1.862.127.727.841 1.283 1.288 1.824.506.613.971 1.396 1.048 2.2.073.769-.254 1.548-.755 2.13-1.002 1.163-2.508 1.733-4.027 1.73-.645-.002-1.375-.032-1.931-.388-.172-.11-.263-.233-.365-.404-.092-.153-.213-.253-.353-.362-.308-.239-.53-.56-.672-.92-.551-1.4-.11-3.13.66-4.373.183-.294.333-.578.244-.928-.092-.367-.32-.697-.522-1.012-.199-.31-.426-.608-.581-.944-.163-.352-.21-.721-.18-1.107.054-.725.358-1.393.79-1.976.416-.56.904-1.098.905-1.833.001-.78-.507-1.473-.29-2.265.09-.328.27-.665.56-.862.278-.188.645-.25.972-.29z" fill="#ebf5ff" />
                <path id="path111" transform="translate(10,15)" d="m2.84 1.392c.006-.105.127-.167.223-.14.125.036.123.156.12.263-.01.33.036.65.113.969.16.664.457 1.276.691 1.914.235.637.345 1.295.208 1.97-.13.635-.334 1.255-.467 1.891-.117.562-.241 1.153-.063 1.713.171.539.55.978.823 1.465.566 1.008.816 2.126.85 3.276.015.535.001 1.074-.12 1.598-.069.302-.162.71-.415.918-.116.096-.315.13-.413-.013-.091-.133-.01-.34.018-.482.127-.616.152-1.245.122-1.87-.03-.606-.1-1.21-.285-1.789-.172-.536-.435-1.019-.743-1.488-.314-.479-.64-.958-.77-1.525-.133-.576-.025-1.162.118-1.726.151-.598.35-1.178.555-1.76.2-.566.271-1.101.16-1.694-.217-1.171-.801-2.27-.725-3.49z" fill="#9accff" />
            </g>
            <g id="g119">
                <path id="path115" transform="translate(11,17)" d="m10.995.192c.429.13.855.34 1.16.67.65.702.451 1.762.092 2.537-.386.833-.971 1.671-.641 2.628.151.44.406.838.55 1.28.154.474.22.967.212 1.461-.016.908-.257 1.876-.911 2.545-.576.589-1.519.932-1.734 1.797-.225.902.325 1.912.569 2.767.276.967.418 2.11.095 3.073-.31.924-1.092 1.65-1.976 2.06-1.768.817-3.82.692-5.593-.1-.752-.337-1.59-.75-2.058-1.448-.144-.216-.187-.405-.219-.655-.028-.224-.118-.402-.226-.6-.237-.434-.332-.92-.313-1.408.075-1.895 1.478-3.658 3.017-4.687.365-.243.685-.492.761-.941.08-.47-.017-.968-.09-1.435-.073-.46-.186-.92-.195-1.388-.01-.49.126-.938.358-1.367.435-.805 1.134-1.416 1.938-1.862.774-.43 1.62-.795 1.998-1.64.402-.896.164-1.957.824-2.756.273-.331.656-.625 1.096-.7.422-.074.883.046 1.286.169z" fill="#ebf5ff" />
                <path id="path117" transform="translate(11,17)" d="m10.12 1.673c.06-.117.233-.126.33-.045.128.107.064.245.006.366-.18.374-.288.767-.36 1.175-.152.85-.118 1.71-.169 2.567-.05.857-.257 1.672-.76 2.377-.475.665-1.028 1.272-1.506 1.936-.422.585-.868 1.202-.945 1.94-.075.71.144 1.414.214 2.118.146 1.457-.131 2.876-.677 4.22-.254.623-.545 1.237-.952 1.777-.235.311-.55.732-.95.84-.185.05-.433-.015-.475-.23-.04-.202.16-.398.266-.547.46-.643.81-1.354 1.093-2.09.274-.713.5-1.446.578-2.21.072-.708.012-1.4-.108-2.103-.123-.715-.26-1.438-.122-2.16.139-.732.562-1.35 1.016-1.926.48-.61 1.007-1.174 1.541-1.736.521-.548.877-1.128 1.05-1.869.341-1.463.22-3.035.93-4.4z" fill="#9accff" />
            </g>
            <g id="g125">
                <path id="path121" transform="translate(7,22)" d="m1.561 0c.692 0 1.3.385 1.719.932.49.64.59 1.423.788 2.186.1.38.27.756.568 1.014.272.235.617.282.942.397.65.229 1.175.78 1.382 1.454.253.821-.015 1.65.031 2.482.042.765.76 1.242 1.336 1.608.569.362 1.081.7 1.253 1.404.181.747.242 1.58-.01 2.318-.418 1.228-1.644 1.769-2.829 1.852-1.075.077-2.427-.043-3.234-.863-.483-.491-.658-1.178-.636-1.861.013-.425.093-.846.197-1.257.073-.29.172-.58.2-.88.075-.8-.628-.955-1.226-1.174-.762-.28-1.293-.807-1.664-1.542-.345-.684-.49-1.452-.283-2.205.106-.384.298-.733.557-1.03.115-.13.276-.24.379-.376.096-.129.075-.295.042-.445-.153-.692-.632-1.266-.803-1.958-.154-.624-.063-1.402.48-1.805.235-.174.524-.25.811-.251z" fill="#ebf5ff" />
                <path id="path123" transform="translate(7,22)" d="m2.503 1.806c.733.821.933 1.935.991 3.014.033.606-.001 1.244.168 1.832.145.502.484.886.834 1.25.704.73 1.489 1.473 1.695 2.531.12.62.04 1.262.206 1.876.152.558.42 1.106.744 1.578.262.38.603.67.89 1.023.087.108.212.267.176.42-.043.178-.259.235-.412.207-.358-.066-.66-.425-.893-.686-.342-.382-.633-.793-.87-1.253-.261-.512-.473-1.055-.563-1.629-.094-.595-.047-1.216-.26-1.787-.36-.962-1.233-1.53-1.864-2.279-.786-.934-.67-2.096-.589-3.245.045-.631.089-1.344-.215-1.92-.116-.22-.374-.426-.424-.676-.045-.23.204-.46.386-.256z" fill="#9accff" />
            </g>
            <path id="path127" transform="translate(7,15)" d="m3 22c0 5.25.796 8 5 8s5-2.75 5-8z" fill="#002aaf" />
        </g>
        <g id="g169">
            <g id="g167">
                <path id="path131" transform="translate(37.5,20)" d="m8.707 1.185c2.498.38 5.038.774 7.318 1.873.905.435 1.861 1.147 1.889 2.16.004.17-.02.343-.102.491-.226.405-.767.466-1.226.48l-3.369.1c-.171.005-.375.03-.452.184-.079.158.028.34.127.486.29.426.552.872.783 1.333.055.111.11.243.056.355-.039.08-.122.125-.202.162-1.064.484-2.487.112-3.052-.919-.566-1.031.002-2.563 1.138-2.828.557-.13 1.192.012 1.673-.3.059-.039.118-.09.128-.16.01-.072-.035-.138-.081-.193-.522-.625-1.418-.75-2.227-.755-.81-.004-1.665.061-2.38-.322-.715-.382-1.146-1.434-.598-2.035" fill="#aec9ff" />
                <g id="g163">
                    <g id="g138" transform="translate(41.069,20)">
                        <mask id="s5e3r91b5m" fill="#ffffff">
                            <use id="use133" width="100%" height="100%" xlink:href="#f3qzehjz9l" />
                        </mask>
                        <path id="path136" d="m.187 10.971c.605-.106.059-1.863.059-1.863-.824-3.208.694-5.586.742-5.671.014-.024.282-.503-.01-1.187-.256-.593-.304-1.062-.148-1.434.122-.293.365-.512.723-.65 1.292-.497 1.832.236 2.2 1.15.503-.316 1.043-.576 1.605-.77.251-.085.568-.143.748.054.145.16.149.442.34.541.18.093.384-.045.554-.155.15-.097.318-.179.496-.188.178-.01.37.066.46.222.085.148.082.357.224.448.12.077.275.023.416.011.266-.023.533.133.666.365 1.165-.662 1.875-.085 2.208.349.288.376.397.809.316 1.25-.104.565-.511 1.1-1.118 1.47-.02.011-.015.013-.029.016-.03.026-.142.156-.103.583.018.186.058.653.096 1.262.097.488.23.97.398 1.438.047.133.098.28.048.412s-.255.198-.328.076c-.019.02-.032.043-.043.066l.001.284c.01.028.021.057.035.083.07.136.177.258.21.408.033.151-.054.346-.206.344-.017 0-.035-.003-.053-.005-.008.21-.02.416-.034.615l.001.004c.07.166.145.339.134.519 0 0-5.01 2.863-10.61-.047" fill="#f4f5f7" mask="url(#s5e3r91b5m)" />
                    </g>
                    <path id="path140" transform="translate(41.015,20)" d="m9.719 3.016c.078.174.136.358.245.516.07.103.155.201.264.267.108.067.245.099.369.063.114-.032.204-.116.275-.206.188-.237.28-.54.255-.836-.005-.058-.015-.117-.047-.166-.039-.06-.107-.1-.178-.123 0 0-.687-.17-1.216.091 0 0-.124.048.033.394" fill="#adadad" />
                    <g id="g147" transform="translate(41.069,20)">
                        <mask id="k5iy26eqyo" fill="#ffffff">
                            <use id="use142" width="100%" height="100%" xlink:href="#ytyxfhnfrn" />
                        </mask>
                        <path id="path145" d="m6.421 1.135c-.19-.098-.194-.38-.339-.538-.09-.098-.213-.133-.345-.133-.133.001-.274.037-.399.08-.56.191-1.098.45-1.6.765h-.001c-.287-.709-.677-1.311-1.448-1.304-.216.002-.462.052-.743.16-.357.137-.6.355-.72.646-.154.371-.106.838.146 1.427.293.681.025 1.158.011 1.182-.048.085-1.56 2.451-.74 5.645 0 0 .545 1.748-.058 1.854.299.155.596.293.891.417.509-.499.136-1.688.136-1.688-.074-.733-.256-1.539-.208-2.443.264-5.011 5.417-6.07 5.417-6.07" fill="#e7e7e8" fill-opacity=".4" mask="url(#k5iy26eqyo)" />
                    </g>
                    <path id="path149" transform="translate(41.015,20)" d="m2.918 1.597c-.032-.133-.09-.26-.158-.38-.057-.1-.132-.188-.225-.257-.306-.225-.767.006-.767.006-.57.294-.243.94-.168 1.116 0 0 .13.332.71.092.582-.24.654-.388.608-.577" fill="#9b9a9a" />
                    <path id="path151" transform="translate(41.015,20)" d="m7.19 4.954c0-.238.262-.43.586-.43.323 0 .586.192.586.43m-5.112 0c0-.238.261-.43.585-.43.323 0 .586.192.586.43" stroke="#000000" stroke-linecap="round" stroke-width=".2" />
                    <path id="path153" transform="translate(41.015,20)" d="m4.572 9.045c.466.692 1.647.685 2.303.169.368-.29.581-.732.737-1.174.142-.403.248-.828.21-1.254-.04-.425-.242-.852-.604-1.08-.342-.213-.77-.223-1.172-.21-.406.013-.821.046-1.191.213 0 0-1.972.826-.283 3.336" fill="#9b9a9a" />
                    <path id="path155" transform="translate(41.015,20)" d="m5.75 7.215v.539" stroke="#ffffff" stroke-linecap="round" stroke-width=".12" />
                    <path id="path157" transform="translate(41.015,20)" d="m4.634 7.593c.536.17 1.623.406 2.45-.485" stroke="#ffffff" stroke-linecap="round" stroke-width=".14" />
                    <path id="path159" transform="translate(41.015,20)" d="m5.024 6.576c.157-.15.396-.176.617-.194l.26-.022c.158-.013.342-.017.448.097.072.077.086.188.093.292.004.071.007.146-.025.21-.027.053-.075.094-.126.127-.26.165-.599.138-.908.104-.05-.005-.1-.01-.148-.025-.209-.062-.335-.307-.26-.503" fill="#2a2a2a" />
                    <path id="path161" transform="translate(41.015,20)" d="m9.305 5.66c.086.143-.205.643-.735.69-.53.048-.901-.393-.841-.55.06-.156.408-.059.786-.093.378-.033.705-.191.79-.048m-7 .001c-.085.143.206.643.736.69.53.048.9-.393.84-.55-.06-.156-.408-.059-.785-.093-.378-.033-.705-.191-.79-.048" fill="#f2bcbb" />
                </g>
                <path id="path165" transform="translate(37.5,20)" d="m16.948 9.89c-.14-.297-.406-.452-.662-.568-.332-.15-.674-.263-1.021-.337-.32-.069-.688-.076-.973.082-.062.422-.163.884-.163.884-.216.45-.654.706-1.069.852-.116.046-.239.079-.36.104-.246.056-.449.077-.544.084-2.063.287-4.14.416-6.213.333-.583-.024-1.18-.07-1.718-.35l.007-.005c-.259-.385-.472-.951-.472-.951l-.104.048.08-.039c-.812.199-1.609.5-2.375.895-.43.222-.869.493-1.142.97-.273.478-.317 1.216.02 1.621.198.237.48.316.75.362.912.155 1.84.04 2.75-.134 1.602-.306 3.181-.793 4.79-1.049 2.354-.374 4.758-.25 7.081-.866.39-.104.792-.238 1.09-.573.298-.336.453-.93.248-1.364" fill="#aec9ff" />
            </g>
        </g>
    </g>
</svg>
