<svg id="svg42" version="1.1" viewBox="0 0 224 165" width="100%" height="100%"
    xmlns="http://www.w3.org/2000/svg"
    xmlns:xlink="http://www.w3.org/1999/xlink">
    <defs id="defs6">
        <path id="2xz9260n5a" d="m.432 0h81.296v58.675h-81.296z" />
        <path id="opn5mwhidc" d="m0 .356h81.437v10.123h-81.437z" />
        <path id="92l8rfg91e" d="m.318.049h82.991v66.923h-82.991z" />
        <path id="bbmkdo2ddg" d="m.005.572h28.761v5.428h-28.761z" />
    </defs>
    <g id="g40" transform="translate(57 29)" fill="none" fill-rule="evenodd">
        <path id="path8" d="m109.95 89.355c-1.603-13.12-87.635-38.444-103.61-26.017-15.972 12.428-.617 35.751 32.853 41.724 33.47 5.972 72.356-2.586 70.753-15.707z" fill="#9accff" opacity=".5" />
        <g id="g38" transform="matrix(-1,0,0,1,97,0)">
            <mask id="mzv9rpp2ub" fill="#ffffff">
                <use id="use10" width="100%" height="100%" xlink:href="#2xz9260n5a" />
            </mask>
            <path id="path13" d="m.53 58.66c5.91-.25 11.82-.48 17.731-.693 10.481-.375 20.964-.69 31.448-.945 10.518-.256 21.038-.45 31.558-.585-2.114-32.183-1.402-47.295.288-54.14.096-.389.374-1.23-.077-2.016-.861-1.498-40.022 2.96-75.539 14.192l-.05.15c-2.359 14.613-4.175 29.31-5.456 44.052.03-.007.063-.013.098-.014" fill="#edeced" mask="url(#mzv9rpp2ub)" />
            <g id="g20" transform="translate(0,57)">
                <mask id="1z76h4tmqd" fill="#ffffff">
                    <use id="use15" width="100%" height="100%" xlink:href="#opn5mwhidc" />
                </mask>
                <path id="path18" d="m63.583.651c-10.487.21-20.972.484-31.454.82-10.535.338-21.068.74-31.599 1.204-.063.003-.117-.007-.166-.025-.105 1.288-.215 2.576-.314 3.865l.025.064c-.117.958-.1 1.933.052 2.885.036.22.082.448.211.628.281.39.819.412 1.3.373 10.344-.02 20.687-.063 31.03-.127 10.36-.064 20.717-.148 31.076-.255 3.003-.03 6.003-.063 9.006-.097l4.502-.053c1.066-.013 2.975.375 3.672-.703.305-.47.326-1.07.337-1.635l.104-5.315.071-.164-.114-1.76c-5.912.078-11.827.177-17.739.294" fill="#283378" mask="url(#1z76h4tmqd)" />
            </g>
            <path id="path22" d="m27.281 77.017c2.542-.458 5.071-.98 7.585-1.564 1.182-.276 2.197-.875 3.168-1.58.313-.226.645-1.74.639-2.667-.01-1.334-.162-2.666-.457-3.97l.106.006c2.373-.078 13.691-.441 16.317-.095.112.015.49-.065.578.194.104.304 1.419 3.956.395 6.166-.12.259-.232.458-.29.559l-.098.076c-2.351 1.858-8.418 3.948-11.727 3.855-1.745-.049-3.55-.013-5.295-.024-1.347-.008-2.718-.065-4.063 0-2.24.108-4.378-.169-6.614-.332-.29-.022-.682-.295-.46-.475" fill="#283378" />
            <mask id="mxw67ugnmf" fill="#ffffff">
                <use id="use24" width="100%" height="100%" xlink:href="#92l8rfg91e" />
            </mask>
            <path id="path27" d="m83.17.327c.29.278.045 2.82 0 3.625-.87 15.338-2.608 42.946-.58 61.63.213 1.96-82.353 1.457-82.272.837.079-.597 69.526 0 72.712-.558.632-.11 5.215 0 5.215 0s3.228 0 3.186-.836c-1.158-23.705-2.317-40.995-.29-64.976 0 0 1.739 0 2.029.278" fill="#527dbf" mask="url(#mxw67ugnmf)" />
            <path id="path29" d="m9.5 17.076c1.428-.562 65.105-12.365 66.532-10.96 1.428 1.405 1.307 47.685-.571 48.054-1.427.281-66.818 3.091-69.101 2.81-1.417-.174 1.712-39.342 3.14-39.904" fill="#b0c5e7" />
            <g id="g36" transform="translate(27,72)">
                <mask id="nuj0elca7h" fill="#ffffff">
                    <use id="use31" width="100%" height="100%" xlink:href="#bbmkdo2ddg" />
                </mask>
                <path id="path34" d="m.285 4.999c2.556-.446 5.055-1.14 7.58-1.71 1.19-.269 2.98-1.039 3.21-1.359.583-.815.583-1.358.583-1.358-.078.141 17.216.577 17.108 1.011-.007.027-.1.135-.17.33-.019.054-.044.136-.123.214 0 0-.042.042-.097.074-3.333 1.93-5.533 2.588-5.533 2.588-1.17.35-3.342.985-6.256 1.163-1.073.065-.998-.007-5.323-.023-2.558-.009-3.836-.014-4.084 0 0 0-5.062.297-6.649-.323-.134-.053-.543-.213-.526-.37.006-.045.044-.077.064-.092" fill="#203f8d" mask="url(#nuj0elca7h)" />
            </g>
        </g>
    </g>
</svg>
