<svg xmlns="http://www.w3.org/2000/svg" width="461" height="170" viewBox="0 0 461 170">
    <g fill="none" fill-rule="evenodd">
        <path fill="#9ACCFF" d="M307.912 75.83c-2.945-29.87-160.93-87.523-190.259-59.23-29.329 28.292-1.132 81.39 60.33 94.987 61.464 13.597 132.873-5.886 129.929-35.757z" opacity=".5" transform="rotate(-7 448.323 27.42)"/>
        <path fill="#2E5BCC" d="M5.5 25h338.86c9.508 0 17.216 7.708 17.216 17.217 0 1.793-.28 3.576-.831 5.283-4.254 13.192-17.005 21.74-30.824 20.664L5.073 42.862C2.21 42.639 0 40.25 0 37.378V30.5C0 27.462 2.462 25 5.5 25z" transform="rotate(-7 448.323 27.42)"/>
        <path fill="#FE5071" d="M87.5 0h336.103c12.244 0 22.17 9.926 22.17 22.17 0 1.284-.111 2.565-.333 3.83-2.574 14.675-16.005 24.9-30.836 23.476l-327.63-31.47C84.154 17.735 82 15.365 82 12.53V5.5C82 2.462 84.462 0 87.5 0z" transform="rotate(-7 448.323 27.42)"/>
    </g>
</svg>
