<svg id="svg58" version="1.1" viewBox="0 0 224 165" width="100%" height="100%"
    xmlns="http://www.w3.org/2000/svg"
    xmlns:xlink="http://www.w3.org/1999/xlink">
    <defs id="defs4">
        <path id="0zbm4rb2xa" d="m0 .181h64.998v94.704h-64.998z" />
        <path id="sxfendj3dc" d="m.173.145h15.737v12.855h-15.737z" />
    </defs>
    <g id="g56" transform="translate(46 16)" fill="none" fill-rule="evenodd">
        <path id="path6" d="m88.961 118.73c-1.297-10.608-70.904-31.083-83.827-21.034-12.922 10.048-.499 28.905 26.582 33.734 27.08 4.829 58.543-2.09 57.245-12.699z" fill="#9accff" opacity=".5" />
        <g id="g52">
            <g id="g13" transform="translate(21,22)">
                <mask id="3me4z2owtb" fill="#ffffff">
                    <use id="use8" width="100%" height="100%" xlink:href="#0zbm4rb2xa" />
                </mask>
                <path id="path11" d="m5.402 94.295c-2.44-.546-5.41-2.82-4.775-5.943.315-1.55 1.526-2.553 2.78-3.201 1.737-.898 3.714-1.235 5.619-1.32 2.197-.1 4.392.15 6.573.412 2.154.259 4.307.491 6.47.633 4.261.278 8.536.283 12.798.015 4.18-.26 8.338-.784 12.452-1.57 2.042-.39 4.07-.848 6.088-1.375 1.898-.461 3.765-1.04 5.592-1.732 2.399-.955 6.299-2.813 5.981-6.253-.169-1.824-1.464-3.281-2.771-4.296-1.58-1.228-3.409-2.035-5.2-2.82-8.33-3.647-16.677-7.251-25.015-10.877-1.946-.846-3.905-1.67-5.794-2.661-1.768-.928-3.528-2.007-4.951-3.498-1.243-1.302-2.354-3.051-2.315-5.005.033-1.621.922-2.996 2.012-4.025 2.697-2.545 6.513-3.577 9.962-4.117 4.285-.672 8.632-.668 12.92-1.316 3.461-.524 7.16-1.535 9.976-3.903 1.08-.909 2.032-2.077 2.432-3.524.36-1.407.18-2.899-.5-4.18-.763-1.51-1.98-2.714-3.258-3.7-1.513-1.14-3.177-2.06-4.943-2.737-3.802-1.502-7.801-2.285-11.696-3.438-1.91-.565-3.84-1.185-5.614-2.157-1.503-.822-3.14-1.932-3.976-3.58-1.725-3.404 2.39-5.432 4.722-6.2 1.598-.502 3.229-.889 4.88-1.159.352-.062.203-.644-.147-.582-1.737.28-3.45.695-5.125 1.24-1.406.485-2.857 1.122-3.962 2.217-.927.92-1.504 2.228-1.257 3.608.293 1.633 1.564 2.89 2.759 3.802 1.58 1.205 3.38 1.992 5.206 2.634 1.923.675 3.887 1.202 5.85 1.718 3.923 1.033 8.022 1.952 11.563 4.148 2.477 1.537 5.842 4.417 5.018 7.988-.365 1.584-1.476 2.824-2.675 3.735-1.449 1.102-3.108 1.854-4.791 2.416-7.847 2.618-16.484.746-24.129 4.302-2.6 1.21-5.757 3.41-5.782 6.875-.014 1.8.857 3.45 1.932 4.754 1.288 1.563 2.956 2.718 4.654 3.684 1.804.988 3.659 1.878 5.557 2.667 2.091.911 4.183 1.82 6.275 2.73l12.697 5.52 6.308 2.743c1.926.837 3.9 1.64 5.651 2.869 1.433 1.006 3.127 2.657 2.98 4.706-.116 1.628-1.42 2.803-2.612 3.589-1.543 1.016-3.277 1.674-5.002 2.221-1.989.63-4.011 1.153-6.038 1.624-4.173.965-8.404 1.652-12.667 2.055-4.277.408-8.576.541-12.87.398-2.17-.072-4.337-.216-6.5-.432-2.231-.222-4.452-.566-6.688-.718-2.023-.137-4.065-.106-6.056.337-1.663.37-3.42 1.028-4.683 2.314-.904.912-1.38 2.169-1.31 3.456.104 1.286.646 2.495 1.535 3.425 1.002 1.05 2.296 1.77 3.712 2.067.349.078.498-.504.148-.583" fill="#e6e6e6" mask="url(#3me4z2owtb)" />
            </g>
            <path id="path15" transform="translate(21)" d="m51.542 96 8.458 12.286-7.875 7.714-1.02-2 1.75-4s-.293-3.714-1.313-4.714c-1.021-1-5.542-7-5.542-7z" fill="#ffb8b8" />
            <path id="path17" transform="translate(21)" d="m40.173 56s1.624 2.522-1.772 13.388c0 0 15.84 26.232 13.33 27.971-2.51 1.738-9.302 5.586-11.074 4.427s-14.657-40.426-14.657-40.426z" fill="#2f2e41" />
            <g id="g24" transform="translate(68,106)">
                <mask id="81bfhlrokd" fill="#ffffff">
                    <use id="use19" width="100%" height="100%" xlink:href="#sxfendj3dc" />
                </mask>
                <path id="path22" d="m12.214.145 2.458 2.445c1.265 1.257 2.107 3.073-.28 4.61-2.39 1.537-10.678 7.264-13.488 5.448s3.372-3.492 3.372-3.492 1.022-3.769 1.565-2.932c.542.836.542 2.513.542 2.513l5.83-8.592z" fill="#2f2e41" mask="url(#81bfhlrokd)" />
            </g>
            <path id="path26" transform="translate(21)" d="m28 103.23s-4.571 8.07-4.571 9.027.285 3.692.285 3.692l-8.714 2.051-3-1.368 1-2.461s5.429-1.778 6.572-5.197c1.142-3.419 2.428-6.974 2.428-6.974zm6-97.23c3.314 0 6 2.686 6 6s-2.686 6-6 6-6-2.686-6-6 2.686-6 6-6" fill="#ffb8b8" />
            <path id="path28" transform="translate(21)" d="m31 17.15 2.82 8.85 6.18-3.013s-4.219-7.065-4.219-7.987z" fill="#ffb8b8" />
            <path id="path30" transform="translate(21)" d="m31.267 47h7.5s5.376 8.335 2.263 17.1c-.477 1.343-.95 3.223-1.422 5.446-1.086 5.113-2.168 12.038-3.276 18.402-1.557 8.94-3.166 16.77-4.916 16.912-3.537.288-10.416.24-10.416-1.197 0-1.438 4.607-43.011 4.607-43.011l.99-1.725.188-7.511c.061-2.466 2.054-4.428 4.482-4.416m-7.607 65s1.713 2.817 1.266 4.84-1.193 1.734-4.47 2.023c-3.28.29-14.456.29-14.456-1.734 0-2.023 8.719-4.65 8.755-3.842.037.808.335 2.397-.56 2.686-.893.29-.073.073-.073.073l9.537-4.046z" fill="#2f2e41" />
            <path id="path32" transform="translate(21)" d="m28 63.69s-1.789 10.046-5.738 6.584c-3.949-3.461 2.63-8.274 2.63-8.274z" fill="#ffb8b8" />
            <path id="path34" transform="translate(21)" d="m40.346 51.236c.421.183.914.127 1.28-.145.26-.197.433-.481.485-.796.622-3.45 1.38-13.019 1.816-17.857.548-6.07-2.188-10.773-2.21-10.802l-1.613-2.132c-.345-.458-.973-.628-1.516-.409 0 0-5.034 5.023-5.052 5.217-.08.832-.678 2.678-3.801 5.681-3.417 3.286-3.436 6.154-3.36 6.955.005.053.007.105.007.158-.006.359.045.717.15 1.061 1.432 4.34.311 9.535-1.489 14.957-.14.503.066 1.035.513 1.328.526.344-.105-.167.083.054 1.24 1.462 3.025-.575 5.067-2.798.711-.775 1.517-1.652 2.468-2.566 1.306-1.256 3.802 1.61 4.962 1.61.764.01 1.517.174 2.21.484" fill="#002aaf" />
            <path id="path36" transform="translate(21)" d="m41.437 23.122s2.97 3.016.722 6.283c-2.249 3.267-2.29 5.847-2.29 5.847s-3.175 23.737-8.85 21.968l-3.438 6.78-4.581-2.17 3.46-5.935s-2.195-.366-1.385-1.755c.569-.976 4.263-11.824 6.412-18.195.91-2.7 1.543-4.596 1.543-4.596s2.976-9.53 8.407-8.227" fill="#002aaf" />
            <path id="path38" transform="translate(21)" d="m40 35.943-3 12.057 2.282-13z" fill="#000000" />
            <path id="path40" transform="translate(21)" d="m27.04 9.178s-1.01-8.37 7.212-5.625c0 0 5.872-1.15 7.797 6.69l1.951 8.217-.95-.552-.443 1.033-1.54.417-.659-1.396-.319 1.695-12.612 1.343s5.65-3.566 5.739-9.956l-1.076 1.213z" fill="#2f2e41" />
            <path id="path42" transform="translate(21)" d="m36 87.526 2-18.526-1.627 20z" fill="#000000" />
            <path id="path44" transform="translate(21)" d="m40.5 1c1.933 0 3.5 1.343 3.5 3s-1.567 3-3.5 3-3.5-1.343-3.5-3 1.567-3 3.5-3" fill="#2f2e41" />
            <path id="path46" transform="translate(21)" d="m37.34 2.833c.091-1.58 1.256-2.809 2.66-2.805-.055-.008-.11-.017-.165-.022-1.467-.108-2.733 1.146-2.83 2.8-.095 1.654 1.016 3.083 2.482 3.19l.006.001c.056.004.111.003.167.003-1.394-.2-2.41-1.586-2.32-3.167" fill="#2f2e41" />
            <path id="path48" transform="translate(21)" d="m33 11c.552 0 1 .448 1 1s-.448 1-1 1-1-.448-1-1 .448-1 1-1" fill="#ffb8b8" />
            <path id="path50" transform="translate(21)" d="M 29.896,39.461 25,54 31,38 Z" fill="#000000" />
        </g>
        <path id="path54" d="m101.08 115.03c-1.828 2.644-1.33 3.966 1.495 3.966 4.237 0 2.817-3.954 6.468-3.398 3.652.556 6.971-2.685 3.486-4.185-3.486-1.5-2.868-2.243-6.41 0-2.363 1.495-4.042 2.7-5.039 3.617zm30.077-.949c1.436-2.057 1.044-3.085-1.175-3.085-3.33 0-2.213 3.076-5.082 2.643-2.87-.432-5.477 2.088-2.739 3.255 2.739 1.166 2.254 1.744 5.037 0 1.856-1.163 3.175-2.1 3.959-2.813z" fill="#d8d8d8" />
    </g>
</svg>
