<svg xmlns="http://www.w3.org/2000/svg" xmlns:xlink="http://www.w3.org/1999/xlink" width="100%" height="100%" viewBox="0 0 110 107">
    <defs>
        <path id="2xz9260n5a" d="M0.432 0L81.728 0 81.728 58.675 0.432 58.675z"/>
        <path id="opn5mwhidc" d="M0 0.356L81.437 0.356 81.437 10.479 0 10.479z"/>
        <path id="92l8rfg91e" d="M0.318 0.049L83.309 0.049 83.309 66.972 0.318 66.972z"/>
        <path id="bbmkdo2ddg" d="M0.005 0.572L28.766 0.572 28.766 6 0.005 6z"/>
    </defs>
    <g fill="none" fill-rule="evenodd">
        <path fill="#9ACCFF" d="M109.952 89.355c-1.603-13.12-87.635-38.444-103.606-26.017-15.972 12.428-.617 35.751 32.853 41.724 33.47 5.972 72.356-2.586 70.753-15.707z" opacity=".5"/>
        <g transform="matrix(-1 0 0 1 97 0)">
            <mask id="mzv9rpp2ub" fill="#fff">
                <use xlink:href="#2xz9260n5a"/>
            </mask>
            <path fill="#EDECED" d="M.53 58.66c5.91-.25 11.82-.48 17.731-.693 10.481-.375 20.964-.69 31.448-.945 10.518-.256 21.038-.45 31.558-.585-2.114-32.183-1.402-47.295.288-54.14.096-.389.374-1.23-.077-2.016-.861-1.498-40.022 2.96-75.539 14.192l-.05.15C3.53 29.236 1.714 43.933.433 58.675c.03-.007.063-.013.098-.014" mask="url(#mzv9rpp2ub)"/>
            <g transform="translate(0 57)">
                <mask id="1z76h4tmqd" fill="#fff">
                    <use xlink:href="#opn5mwhidc"/>
                </mask>
                <path fill="#283378" d="M63.583.651c-10.487.21-20.972.484-31.454.82-10.535.338-21.068.74-31.599 1.204-.063.003-.117-.007-.166-.025C.259 3.938.149 5.226.05 6.515l.025.064c-.117.958-.1 1.933.052 2.885.036.22.082.448.211.628.281.39.819.412 1.3.373 10.344-.02 20.687-.063 31.03-.127 10.36-.064 20.717-.148 31.076-.255 3.003-.03 6.003-.063 9.006-.097l4.502-.053c1.066-.013 2.975.375 3.672-.703.305-.47.326-1.07.337-1.635l.104-5.315.071-.164-.114-1.76C75.41.434 69.495.533 63.583.65" mask="url(#1z76h4tmqd)"/>
            </g>
            <path fill="#283378" d="M27.281 77.017c2.542-.458 5.071-.98 7.585-1.564 1.182-.276 2.197-.875 3.168-1.58.313-.226.645-1.74.639-2.667-.01-1.334-.162-2.666-.457-3.97l.106.006c2.373-.078 13.691-.441 16.317-.095.112.015.49-.065.578.194.104.304 1.419 3.956.395 6.166-.12.259-.232.458-.29.559l-.098.076C52.873 76 46.806 78.09 43.497 77.997c-1.745-.049-3.55-.013-5.295-.024-1.347-.008-2.718-.065-4.063 0-2.24.108-4.378-.169-6.614-.332-.29-.022-.682-.295-.46-.475"/>
            <mask id="mxw67ugnmf" fill="#fff">
                <use xlink:href="#92l8rfg91e"/>
            </mask>
            <path fill="#527DBF" d="M83.17.327c.29.278.045 2.82 0 3.625-.87 15.338-2.608 42.946-.58 61.63.213 1.96-82.353 1.457-82.272.837.079-.597 69.526 0 72.712-.558.632-.11 5.215 0 5.215 0s3.228 0 3.186-.836C80.273 41.32 79.114 24.03 81.141.049c0 0 1.739 0 2.029.278" mask="url(#mxw67ugnmf)"/>
            <path fill="#B0C5E7" d="M9.5 17.076c1.428-.562 65.105-12.365 66.532-10.96 1.428 1.405 1.307 47.685-.571 48.054-1.427.281-66.818 3.091-69.101 2.81-1.417-.174 1.712-39.342 3.14-39.904"/>
            <g transform="translate(27 72)">
                <mask id="nuj0elca7h" fill="#fff">
                    <use xlink:href="#bbmkdo2ddg"/>
                </mask>
                <path fill="#203F8D" d="M.285 4.999c2.556-.446 5.055-1.14 7.58-1.71 1.19-.269 2.98-1.039 3.21-1.359.583-.815.583-1.358.583-1.358-.078.141 17.216.577 17.108 1.011-.007.027-.1.135-.17.33-.019.054-.044.136-.123.214 0 0-.042.042-.097.074-3.333 1.93-5.533 2.588-5.533 2.588-1.17.35-3.342.985-6.256 1.163-1.073.065-.998-.007-5.323-.023-2.558-.009-3.836-.014-4.084 0 0 0-5.062.297-6.649-.323-.134-.053-.543-.213-.526-.37.006-.045.044-.077.064-.092" mask="url(#nuj0elca7h)"/>
            </g>
        </g>
    </g>
</svg>
