<svg xmlns="http://www.w3.org/2000/svg" width="466" height="191" viewBox="0 0 466 191">
    <g fill="none" fill-rule="evenodd">
        <path fill="#9ACCFF" d="M338.283 66.162C330.197 37.256 164.601 7.913 140.63 40.869c-23.97 32.956 13.018 80.35 75.908 83.068 62.891 2.717 129.832-28.87 121.745-57.775z" opacity=".5" transform="rotate(-4 463.613 4.937)"/>
        <path fill="#2E5BCC" d="M363.042 107.753H24.182c-9.508 0-17.216 7.708-17.216 17.216 0 1.794.28 3.577.83 5.284 4.254 13.192 17.006 21.74 30.825 20.664l324.848-25.303c2.863-.223 5.073-2.611 5.073-5.483v-6.878c0-3.038-2.463-5.5-5.5-5.5z" transform="rotate(-4 463.613 4.937)"/>
        <path fill="#FE5071" d="M446.077 67.81H109.974c-12.245 0-22.17 9.926-22.17 22.17 0 1.284.11 2.565.333 3.83 2.574 14.675 16.004 24.9 30.836 23.476l327.63-31.47c2.82-.271 4.974-2.641 4.974-5.475V73.31c0-3.038-2.463-5.5-5.5-5.5z" transform="rotate(-4 463.613 4.937)"/>
    </g>
</svg>
