<svg id="svg60" version="1.1" viewBox="0 0 224 165" width="100%" height="100%"
    xmlns="http://www.w3.org/2000/svg">
    <g id="g58" transform="translate(54.5 3.9999)" fill="none" fill-rule="evenodd">
        <path id="path2" d="m5.048 139.36c1.603-13.12 87.635-38.444 103.61-26.017 15.972 12.428.617 35.751-32.853 41.724-33.47 5.972-72.356-2.586-70.753-15.707z" fill="#9accff" opacity=".5" />
        <path id="path4" d="m28 89h3l-2.082 48h-.918z" fill="#c5cfd6" />
        <path id="path6" transform="matrix(-1,0,0,1,67,0)" d="m32 89h3l-2.082 48h-.918z" fill="#c5cfd6" />
        <path id="path8" d="m101 89h3v48h-.759z" fill="#c5cfd6" />
        <path id="path10" transform="matrix(-1,0,0,1,197,0)" d="m97 89h3v48h-.759z" fill="#c5cfd6" />
        <path id="path12" d="m27 83h78v6h-78z" fill="#c5cfd6" />
        <g id="g40" transform="translate(45,39)" fill-rule="nonzero">
            <ellipse id="ellipse14" cx="21.404" cy="7.936" rx="6.293" ry="6.291" fill="#ffb9b9" />
            <path id="path16" d="m16.767 11.082v9.933h10.268s-1.325-8.278-.663-10.761z" fill="#ffb9b9" />
            <path id="path18" d="m37.137 24.492s-9.771-4.801-9.771-5.132-.994-2.484-1.656-2.484c-.663 0-6.293-1.82-9.44.828l-.331 2.153-12.09 7.947 3.312 12.086s2.153 2.318 1.49 3.973c-.662 1.656.498 10.1.498 10.1l26-.828v-11.259s.829-2.649 1.326-3.476c.496-.828 0-3.312 0-3.312l3.974-4.967s-.496-4.635-3.312-5.629z" fill="#d4e4f4" />
            <path id="path20" d="m4.263 31.86.745-4.056s-4.306 18.708-3.808 20.86c.497 2.153 4.14 5.464 4.637 5.63.497.165 5.134-14.239 5.134-14.239z" fill="#000000" opacity=".1" />
            <path id="path22" d="m6.664 27.307-2.815.497s-4.306 18.708-3.81 20.86c.498 2.153 4.141 5.464 4.638 5.63.497.165 5.134-14.239 5.134-14.239z" fill="#d4e4f4" />
            <path id="path24" d="m38.048 32.853 1.408-2.732s1.987 18.709.662 20.53-6.566 2.503-6.566 2.503l-.058-13.595z" fill="#000000" opacity=".1" />
            <path id="path26" d="m38.296 27.97 2.153 2.151s1.988 18.709.663 20.53-6.566 2.503-6.566 2.503l-.059-13.595 3.81-11.59z" fill="#d4e4f4" />
            <path id="path28" d="m6.168 56.446s-4.803-1.821-5.631 1.656c-.828 3.476 1.987 19.04 1.987 19.04s1.822 11.754 2.981 12.085c1.16.331 6.293.497 7.121-.993.829-1.49-2.484-16.722-2.484-16.722l19.211-.331s-1.159 13.245-1.821 14.404c-.663 1.159-.663 5.132 0 5.132.662 0 7.949-.33 8.446-1.324.497-.993 3.312-23.344 3.312-23.344s2.319-7.782-.331-7.285c-2.65.496-32.791-2.318-32.791-2.318z" fill="#505361" />
            <path id="path30" d="m34.487 88.73s1.656-1.158 2.484 0c.829 1.16 1.16 2.484-2.484 4.47-3.643 1.988-6.459 1.49-6.459 1.16v-4.802l6.46-.827zm-28.651-.496s-1.656-1.159-2.484 0-1.16 2.483 2.484 4.47 6.46 1.49 6.46 1.16v-4.802z" fill="#000000" />
            <path id="path32" d="m21.445.003c-.627-.022-1.253.068-1.849.264-.462.185-.903.419-1.316.696l-2.78 1.727c-.482.209-.792.687-.784 1.213l-.347 2.599c-.088.656-.169 1.357.125 1.95.245.496.713.834 1.097 1.231.615.638 1.03 1.442 1.19 2.313.2 1.085.072 2.392.932 3.085.465.375 1.099.446 1.695.48 1.632.096 3.268.033 4.887-.188.258-.019.509-.09.739-.206.292-.173.476-.478.648-.77.62-1.056 1.26-2.18 1.253-3.405-.004-.605-.159-1.256.132-1.788.154-.225.321-.442.5-.648.36-.507.43-1.157.49-1.775.187-1.976-.01-3.479-1.466-4.87-1.358-1.301-3.291-1.896-5.146-1.908z" fill="#2f2e41" />
            <g id="g38">
                <path id="path34" transform="translate(1,47)" d="m5.488 28.475-5.488 27.94h2.744l5.259-27.482zm17.607 2.29 3.43 32.063h2.287l-2.058-32.979zm9.376-.916 4.802 21.299h2.286l-4.573-21.757zm-18.294 0-.686 16.947h1.83l1.372-16.947z" fill="#000000" />
                <path id="path36" transform="translate(1,47)" d="m1.6 25.498s-3.657-24.506 6.633-25.193 24.925 0 24.925 0 8.46-.687 5.945 25.193c0 0 2.287 7.557-18.293 6.87-20.581-.687-19.21-6.87-19.21-6.87z" fill="#002aaf" />
            </g>
        </g>
        <g id="g50">
            <g id="g46" transform="translate(0,41)">
                <ellipse id="ellipse42" cx="13.358" cy="9.31" rx="11.469" ry="6.072" fill="#f9d73d" />
                <path id="path44" d="M 26.715,13.493 C 26.715,6.04 20.735,0 13.358,0 5.98,0 0,6.04 0,13.493" fill="#9accff" />
            </g>
            <path id="path48" transform="translate(0,1)" d="m12 0h1v40h-1z" fill="#ebf5ff" />
        </g>
        <ellipse id="ellipse52" cx="36" cy="26" rx="9" ry="5" fill="#f9d73d" />
        <path id="path54" d="m47 29c0-6.075-4.701-11-10.5-11s-10.5 4.925-10.5 11" fill="#9accff" />
        <path id="path56" d="m36 0h1v18h-1z" fill="#ebf5ff" />
    </g>
</svg>
