<svg xmlns="http://www.w3.org/2000/svg" width="36" height="36" viewBox="0 0 36 36">
    <g fill="none" fill-rule="evenodd">
        <path fill="#2E5BCC" d="M35 17.5C35 27.165 27.165 35 17.5 35S0 27.165 0 17.5 7.835 0 17.5 0 35 7.835 35 17.5" transform="translate(1 .284)"/>
        <path fill="#FFF" d="M14.497 14.423v3.763h-4.386v4.938h4.386V34.73c.988.174 2.004.27 3.043.27.8 0 1.585-.058 2.356-.162V23.124h4.025l.765-4.938h-4.79v-3.204c0-1.35.669-2.667 2.814-2.667h2.179V8.11s-1.977-.333-3.867-.333c-3.946 0-6.525 2.364-6.525 6.645" transform="translate(1 .284)"/>
    </g>
</svg>
