<svg xmlns="http://www.w3.org/2000/svg" width="14" height="13" viewBox="0 0 14 13">
    <path fill="#002AAF" d="M9.25 2c-.896.001-1.735.43-2.25 1.15C6.485 2.43 5.646 2.001 4.75 2 3.285 2 2 3.338 2 4.864c0 1.486.855 3.017 2.473 4.428.75.652 1.571 1.219 2.45 1.69.049.024.105.024.153 0 .88-.471 1.701-1.038 2.45-1.69C11.146 7.882 12 6.35 12 4.864 12 3.338 10.715 2 9.25 2zm.9-2C8.896.002 7.721.622 7 1.661 6.279.621 5.104.002 3.85 0 1.799 0 0 1.933 0 4.136c0 2.148 1.197 4.36 3.462 6.396 1.049.942 2.2 1.761 3.43 2.442.068.035.148.035.215 0 1.23-.68 2.381-1.5 3.43-2.442C12.803 8.495 14 6.284 14 4.136 14 1.933 12.201 0 10.15 0z"/>
</svg>
