<svg xmlns="http://www.w3.org/2000/svg" width="30" height="30" viewBox="0 0 30 30">
    <defs>
        <filter id="292rhngp0a">
            <feColorMatrix in="SourceGraphic" values="0 0 0 0 1.000000 0 0 0 0 1.000000 0 0 0 0 1.000000 0 0 0 1.000000 0"/>
        </filter>
    </defs>
    <g fill="none" fill-rule="evenodd" filter="url(#292rhngp0a)" transform="translate(-35)">
        <path fill="#8E93A1" d="M50.979 6.668c1.396.003 1.716.015 2.457.049.887.04 1.493.181 2.023.387.548.213 1.012.498 1.476.961.463.464.748.928.96 1.476.207.53.348 1.136.388 2.023.036.778.047 1.092.05 2.675v1.522c-.003 1.583-.014 1.897-.05 2.675-.04.887-.181 1.493-.387 2.023-.213.548-.498 1.012-.961 1.476-.464.463-.928.748-1.476.96-.53.207-1.136.348-2.023.388-.778.036-1.092.047-2.675.05h-1.522c-1.583-.003-1.897-.014-2.675-.05-.887-.04-1.493-.18-2.023-.387-.548-.213-1.012-.498-1.476-.961-.463-.464-.748-.928-.96-1.476-.207-.53-.348-1.136-.388-2.023-.034-.741-.046-1.061-.05-2.457V14.02c.004-1.396.016-1.716.05-2.457.04-.887.181-1.493.387-2.023.213-.548.498-1.012.961-1.476.464-.463.928-.748 1.476-.96.53-.207 1.136-.348 2.023-.388.741-.034 1.061-.046 2.457-.05zm-.231 1.5h-1.495c-1.554.003-1.851.014-2.62.049-.813.037-1.254.173-1.548.287-.389.15-.666.331-.958.623-.292.292-.472.57-.623.958-.114.294-.25.735-.287 1.548-.035.769-.046 1.066-.048 2.62v1.495c.002 1.553.013 1.85.048 2.62.037.812.173 1.253.287 1.547.15.389.331.667.623.958.292.292.57.472.958.623.294.115.735.25 1.548.287.805.037 1.094.047 2.85.049h1.034c1.756-.002 2.045-.012 2.85-.049.813-.037 1.254-.172 1.548-.287.389-.15.666-.331.958-.623.292-.292.472-.57.623-.958.114-.294.25-.735.287-1.548.04-.878.049-1.142.049-3.367v-.268c0-1.98-.01-2.257-.049-3.1-.037-.812-.173-1.253-.287-1.547-.15-.389-.331-.666-.623-.958-.292-.292-.57-.472-.958-.623-.294-.114-.735-.25-1.548-.287-.768-.035-1.066-.046-2.62-.048zM50 10.722c2.363 0 4.28 1.916 4.28 4.28 0 2.362-1.917 4.278-4.28 4.278-2.363 0-4.28-1.916-4.28-4.279s1.917-4.28 4.28-4.28zm0 1.501c-1.534 0-2.778 1.244-2.778 2.778s1.244 2.778 2.778 2.778 2.778-1.244 2.778-2.778-1.244-2.778-2.778-2.778zm4.448-2.67c.553 0 1 .447 1 1 0 .552-.447 1-1 1-.552 0-1-.448-1-1 0-.553.448-1 1-1z"/>
    </g>
</svg>
