<svg xmlns="http://www.w3.org/2000/svg" width="36" height="36" viewBox="0 0 36 36">
    <g fill="none" fill-rule="evenodd">
        <path fill="#2E5BCC" d="M35 17.5C35 27.165 27.165 35 17.5 35S0 27.165 0 17.5 7.835 0 17.5 0 35 7.835 35 17.5" transform="translate(1 .284)"/>
        <path fill="#FFF" d="M18.579 7c1.89.004 2.29.02 3.25.063 1.118.051 1.88.229 2.55.488.69.268 1.275.628 1.859 1.211.583.584.943 1.17 1.21 1.86.26.668.438 1.431.49 2.55.05 1.119.062 1.476.062 4.328 0 2.852-.012 3.21-.063 4.33-.051 1.117-.229 1.88-.488 2.548-.268.69-.628 1.276-1.211 1.86-.584.583-1.17.943-1.86 1.21-.668.26-1.431.438-2.549.49-1.12.05-1.477.062-4.329.062-2.852 0-3.21-.012-4.33-.063-1.117-.051-1.88-.228-2.548-.488-.69-.268-1.276-.628-1.86-1.211-.583-.584-.942-1.17-1.21-1.86-.26-.668-.438-1.431-.489-2.549-.044-.96-.059-1.36-.062-3.25v-2.158c.003-1.89.018-2.29.062-3.25.051-1.118.229-1.88.488-2.549.269-.69.628-1.276 1.211-1.86.584-.583 1.17-.943 1.86-1.21.668-.26 1.431-.438 2.549-.489.96-.044 1.36-.059 3.25-.062zm-.788 1.892h-.582c-2.537 0-2.884.013-3.952.061-1.024.047-1.58.218-1.95.361-.49.191-.84.419-1.207.786-.367.368-.595.717-.786 1.207-.143.37-.314.927-.36 1.95-.051 1.107-.062 1.44-.062 4.243v.291c0 2.537.013 2.884.061 3.952.047 1.024.218 1.58.361 1.95.191.49.419.84.786 1.207.368.367.717.595 1.207.786.37.143.926.314 1.95.36.989.046 1.36.06 3.423.062h1.64c2.064-.002 2.435-.016 3.423-.061 1.024-.047 1.58-.218 1.95-.361.49-.19.84-.419 1.207-.786.367-.367.595-.717.786-1.207.143-.37.314-.926.361-1.95.05-1.107.061-1.44.061-4.243v-.291c0-2.537-.013-2.884-.06-3.952-.048-1.023-.219-1.58-.362-1.95-.191-.49-.419-.84-.786-1.207-.367-.367-.717-.595-1.207-.786-.37-.143-.926-.314-1.95-.36-1.107-.051-1.44-.062-4.243-.062zm-.29 3.216c2.977 0 5.391 2.414 5.391 5.392s-2.414 5.392-5.392 5.392-5.392-2.414-5.392-5.392 2.414-5.392 5.392-5.392zm0 1.892C15.566 14 14 15.567 14 17.5s1.567 3.5 3.5 3.5 3.5-1.567 3.5-3.5-1.567-3.5-3.5-3.5zm5.604-3.365c.696 0 1.26.564 1.26 1.26 0 .696-.564 1.26-1.26 1.26-.696 0-1.26-.564-1.26-1.26 0-.696.564-1.26 1.26-1.26z" transform="translate(1 .284)"/>
    </g>
</svg>
