<svg xmlns="http://www.w3.org/2000/svg" width="36" height="36" viewBox="0 0 36 36">
    <g fill="none" fill-rule="evenodd">
        <path fill="#2E5BCC" d="M35 17.5C35 27.165 27.165 35 17.5 35S0 27.165 0 17.5 7.835 0 17.5 0 35 7.835 35 17.5" transform="translate(1 .284)"/>
        <path fill="#FFF" d="M12.917 14.273v11.394H9.425V14.273h3.492zm8.73-.257c2.297 0 4.02 1.562 4.02 4.917v6.733h-3.492v-6.314c0-1.468-.506-2.47-1.77-2.47-.964 0-1.538.676-1.791 1.328-.092.234-.115.56-.115.886v6.57h-3.492v-7.758c0-1.422-.046-2.61-.092-3.635h3.033l.16 1.584h.07c.459-.746 1.585-1.84 3.469-1.84zM11.194 9.333c1.126 0 1.815.77 1.838 1.771 0 .979-.712 1.771-1.884 1.771-1.103 0-1.815-.792-1.815-1.77 0-1.003.735-1.772 1.861-1.772z" transform="translate(1 .284)"/>
    </g>
</svg>
