<svg xmlns="http://www.w3.org/2000/svg" width="30" height="30" viewBox="0 0 30 30">
    <defs>
        <filter id="pvt6gvmvaa">
            <feColorMatrix in="SourceGraphic" values="0 0 0 0 1.000000 0 0 0 0 1.000000 0 0 0 0 1.000000 0 0 0 1.000000 0"/>
        </filter>
    </defs>
    <g fill="none" fill-rule="evenodd" filter="url(#pvt6gvmvaa)" transform="translate(-105)">
        <path fill="#8E93A1" d="M115.926 12.032v9.301h-2.85v-9.3h2.85zm7.126-.21c1.875 0 3.281 1.275 3.281 4.014v5.497h-2.85V16.18c0-1.199-.413-2.016-1.444-2.016-.788 0-1.256.551-1.463 1.084-.075.19-.094.456-.094.723v5.363h-2.85V15c0-1.16-.038-2.13-.075-2.967h2.475l.131 1.294h.057c.375-.61 1.294-1.503 2.832-1.503zM114.519 8c.919 0 1.482.628 1.5 1.446 0 .798-.581 1.445-1.538 1.445-.9 0-1.481-.647-1.481-1.445 0-.818.6-1.446 1.519-1.446z"/>
    </g>
</svg>
