<svg xmlns="http://www.w3.org/2000/svg" width="30" height="30" viewBox="0 0 30 30">
    <defs>
        <filter id="73giueksca">
            <feColorMatrix in="SourceGraphic" values="0 0 0 0 1.000000 0 0 0 0 1.000000 0 0 0 0 1.000000 0 0 0 1.000000 0"/>
        </filter>
    </defs>
    <g fill="none" fill-rule="evenodd" filter="url(#73giueksca)" transform="translate(-140)">
        <path fill="#8E93A1" fill-rule="nonzero" d="M160.17 8.375c-1.157-1.102-2.759-1.708-4.51-1.708-2.676 0-4.321 1.086-5.23 1.998-1.12 1.124-1.763 2.615-1.763 4.093 0 1.855.783 3.28 2.094 3.809.088.036.177.054.264.054.276 0 .495-.18.571-.467.045-.166.147-.573.192-.75.095-.349.018-.517-.19-.76-.38-.445-.556-.97-.556-1.655 0-2.033 1.527-4.193 4.359-4.193 2.246 0 3.641 1.265 3.641 3.302 0 1.285-.28 2.475-.787 3.351-.352.609-.972 1.335-1.924 1.335-.411 0-.781-.168-1.015-.46-.22-.276-.293-.633-.204-1.005.1-.42.237-.858.369-1.281.24-.774.469-1.505.469-2.088 0-.997-.619-1.667-1.54-1.667-1.17 0-2.086 1.178-2.086 2.681 0 .737.198 1.289.287 1.5-.147.62-1.023 4.298-1.19 4.992-.095.405-.674 3.604.284 3.859 1.076.286 2.038-2.829 2.136-3.181.08-.286.357-1.369.527-2.034.52.496 1.356.83 2.17.83 1.535 0 2.915-.683 3.886-1.926.942-1.205 1.461-2.885 1.461-4.73 0-1.441-.625-2.863-1.714-3.9z"/>
    </g>
</svg>
