<svg xmlns="http://www.w3.org/2000/svg" width="36" height="36" viewBox="0 0 36 36">
    <g fill="none" fill-rule="evenodd">
        <path fill="#2E5BCC" d="M35 17.5C35 27.165 27.165 35 17.5 35S0 27.165 0 17.5 7.835 0 17.5 0 35 7.835 35 17.5" transform="translate(1 .284)"/>
        <path fill="#FFF" fill-rule="nonzero" d="M23.828 9.152C22.37 7.764 20.351 7 18.145 7c-3.371 0-5.445 1.37-6.59 2.518-1.412 1.416-2.222 3.295-2.222 5.157 0 2.338.987 4.132 2.64 4.8.11.044.222.067.331.067.349 0 .625-.226.72-.589.056-.208.186-.72.242-.943.12-.44.023-.652-.24-.958-.477-.56-.7-1.223-.7-2.086 0-2.561 1.925-5.283 5.492-5.283 2.83 0 4.589 1.594 4.589 4.16 0 1.62-.352 3.119-.992 4.223-.444.767-1.225 1.681-2.424 1.681-.52 0-.985-.21-1.279-.579-.278-.348-.37-.797-.257-1.266.126-.529.298-1.08.464-1.615.304-.974.591-1.895.591-2.63 0-1.256-.78-2.1-1.94-2.1-1.473 0-2.628 1.483-2.628 3.378 0 .929.249 1.623.362 1.89-.186.78-1.29 5.415-1.5 6.29-.12.51-.85 4.54.358 4.862 1.356.36 2.568-3.565 2.691-4.008.1-.361.45-1.725.664-2.564.655.625 1.71 1.048 2.735 1.048 1.933 0 3.672-.862 4.896-2.428 1.187-1.518 1.84-3.635 1.84-5.959 0-1.817-.787-3.608-2.16-4.914z" transform="translate(1 .284)"/>
    </g>
</svg>
