<svg xmlns="http://www.w3.org/2000/svg" width="30" height="30" viewBox="0 0 30 30">
    <defs>
        <filter id="5teyf0lbza">
            <feColorMatrix in="SourceGraphic" values="0 0 0 0 1.000000 0 0 0 0 1.000000 0 0 0 0 1.000000 0 0 0 1.000000 0"/>
        </filter>
    </defs>
    <g fill="none" fill-rule="evenodd" filter="url(#5teyf0lbza)" transform="translate(-70)">
        <path fill="#8E93A1" d="M81.858 21.333c6.23 0 9.637-5.129 9.637-9.576 0-.146-.003-.291-.01-.436.661-.475 1.236-1.067 1.69-1.742-.607.268-1.26.448-1.945.53.699-.417 1.236-1.077 1.489-1.863-.655.386-1.38.666-2.15.818C89.95 8.409 89.07 8 88.096 8c-1.87 0-3.387 1.508-3.387 3.366 0 .264.03.52.088.767-2.815-.14-5.311-1.48-6.981-3.516-.292.497-.459 1.075-.459 1.691 0 1.168.598 2.199 1.507 2.802-.555-.017-1.077-.169-1.534-.421v.043c0 1.63 1.167 2.991 2.717 3.3-.285.077-.584.118-.893.118-.218 0-.43-.021-.637-.06.431 1.337 1.682 2.31 3.164 2.337-1.16.903-2.62 1.441-4.206 1.441-.273 0-.543-.015-.808-.047 1.499.955 3.278 1.512 5.191 1.512"/>
    </g>
</svg>
