<svg xmlns="http://www.w3.org/2000/svg" width="36" height="36" viewBox="0 0 36 36">
    <g fill="none" fill-rule="evenodd">
        <path fill="#2E5BCC" d="M35 17.5C35 27.165 27.165 35 17.5 35S0 27.165 0 17.5 7.835 0 17.5 0 35 7.835 35 17.5" transform="translate(1 .284)"/>
        <path fill="#FFF" d="M14.137 25.667c7.632 0 11.805-6.284 11.805-11.732 0-.179-.004-.356-.012-.533.81-.582 1.514-1.308 2.07-2.135-.743.328-1.543.55-2.382.65.856-.511 1.514-1.319 1.824-2.282-.802.473-1.69.816-2.634 1.001-.758-.801-1.836-1.303-3.03-1.303-2.29 0-4.149 1.847-4.149 4.123 0 .324.037.639.108.94-3.448-.172-6.506-1.813-8.552-4.307-.357.609-.561 1.317-.561 2.072 0 1.43.732 2.693 1.846 3.432-.681-.02-1.32-.207-1.88-.516v.053c0 1.997 1.43 3.664 3.328 4.042-.348.094-.715.145-1.093.145-.268 0-.528-.026-.78-.074.528 1.638 2.06 2.83 3.875 2.864-1.42 1.106-3.209 1.765-5.152 1.765-.335 0-.665-.02-.99-.057 1.836 1.17 4.016 1.852 6.36 1.852" transform="translate(1 .284)"/>
    </g>
</svg>
