<svg xmlns="http://www.w3.org/2000/svg" width="30" height="30" viewBox="0 0 30 30">
    <defs>
        <filter id="6arix76csa">
            <feColorMatrix in="SourceGraphic" values="0 0 0 0 1.000000 0 0 0 0 1.000000 0 0 0 0 1.000000 0 0 0 1.000000 0"/>
        </filter>
    </defs>
    <g fill="none" fill-rule="evenodd" filter="url(#6arix76csa)" transform="translate(-175)">
        <path fill="#8E93A1" d="M187.87 17.48v-5.627l4.951 2.814-4.952 2.814zm11.015-7.398c-.218-.82-.86-1.465-1.676-1.684C195.732 8 189.807 8 189.807 8s-5.925 0-7.403.398c-.815.22-1.457.864-1.675 1.684-.396 1.486-.396 4.585-.396 4.585s0 3.099.396 4.584c.218.82.86 1.465 1.675 1.684 1.478.398 7.403.398 7.403.398s5.925 0 7.402-.398c.816-.219 1.458-.864 1.676-1.684.396-1.485.396-4.584.396-4.584s0-3.1-.396-4.585z"/>
    </g>
</svg>
