<svg xmlns="http://www.w3.org/2000/svg" width="36" height="36" viewBox="0 0 36 36">
    <g fill="none" fill-rule="evenodd">
        <path fill="#2E5BCC" d="M35 17.5C35 27.165 27.165 35 17.5 35S0 27.165 0 17.5 7.835 0 17.5 0 35 7.835 35 17.5" transform="translate(1 .284)"/>
        <path fill="#FFF" d="M15.352 20.619V14.38l5.489 3.12-5.489 3.118zm12.21-8.2c-.243-.909-.954-1.624-1.858-1.866-1.637-.442-8.204-.442-8.204-.442s-6.567 0-8.205.442c-.903.242-1.615.957-1.856 1.866C7 14.065 7 17.5 7 17.5s0 3.435.439 5.081c.241.909.953 1.624 1.856 1.866 1.638.442 8.205.442 8.205.442s6.567 0 8.204-.442c.904-.242 1.615-.957 1.857-1.866.439-1.646.439-5.08.439-5.08s0-3.436-.439-5.082z" transform="translate(1 .284)"/>
    </g>
</svg>
